<svg id="Layer_1" data-name="Layer 1" xmlns="http://www.w3.org/2000/svg" viewBox="0 0 380 202"><defs><style>.cls-1{fill:#53565a;}.cls-2{fill:#6bcaba;}.cls-3{fill:#ffb81c;}</style></defs><title>Artboard 1</title><path class="cls-1" d="M199.6,38.4c0-15,11.64-25.31,25.38-25.31,14.27,0,25.38,10.92,25.38,25.18s-11,25.18-25.38,25.18-25.38-11.11-25.38-25Zm5.46-.13c0,11.44,8.61,20.38,20,20.38S245,49.38,245,38.27s-8.42-20.38-20-20.38S205.06,27,205.06,38.21Z"/><path class="cls-1" d="M291.9,54.58l-.07-40.63h5.26V62.6h-5.26L263,21.64l.13,41h-5.26V13.94h5.52Z"/><path class="cls-1" d="M306.81,13.94h27v4.8H312.2v16.9h21.43v4.8H312.2V57.8h21.57v4.8h-27Z"/><path class="cls-1" d="M209.46,81.5h-12V76.7H227v4.8h-12v43.86h-5.46Z"/><path class="cls-1" d="M228.26,76.7h5.59l11,41.23L255.55,76.7h4.08l10.85,41.23L281.39,76.7h5.52L273.3,125.35H268L257.59,85.84,247.2,125.35h-5.46Z"/><path class="cls-1" d="M289.52,101.16c0-15,11.64-25.31,25.38-25.31,14.27,0,25.38,10.92,25.38,25.18s-11,25.18-25.38,25.18-25.38-11.11-25.38-25ZM295,101c0,11.44,8.61,20.38,20,20.38s19.92-9.27,19.92-20.38-8.42-20.38-20-20.38S295,89.72,295,101Z"/><path class="cls-1" d="M205,174.56c.79,8.09,6.71,9.8,9.73,9.8,5.06,0,9.73-3.88,9.73-9.27,0-6.84-5.85-8.35-11.51-10.19-3.95-1.18-12.43-3.68-12.43-12.89-.13-8.61,7-13.41,14.47-13.41,6,0,13,3.35,13.81,12.56H223.4c-.59-3.16-2.17-8-8.61-8-4.87,0-8.88,3.29-8.88,8.35-.07,5.92,4.73,7.36,12.1,9.86,4.6,1.78,11.84,4.34,11.84,13.28,0,8-6,14.27-15.06,14.27-8.15,0-14.92-5.13-15.25-14.4Z"/><path class="cls-1" d="M237.14,188.11V139.45h7.63l18,40.83,17.95-40.83h7.63v48.66h-5.13l.13-43.26-18.87,43.26H261l-18.94-43.26.13,43.26Z"/><path class="cls-1" d="M298.07,139.45h5.39v48.66h-5.39Z"/><path class="cls-1" d="M313.32,139.45h5.46v43.86h18.54v4.8h-24Z"/><path class="cls-1" d="M342.44,139.45h27v4.8H347.83v16.9h21.44v4.8H347.83v17.36h21.57v4.8h-27Z"/><path class="cls-2" d="M36,26.91h-9.7V14.16H51.15V73.48H36Z"/><path class="cls-2" d="M83.33,84.36h-13l6.07-23.71H92.81Z"/><path class="cls-2" d="M110.78,61.69c5.37-4.49,10.66-9,16-13.47C133,43,137.08,39.41,137.08,33c0-4.73-2.72-6.65-6.33-6.65-5.21,0-6,5-6.09,9.38H110.22c.16-3.85.32-8.74,3.53-13.63C118.8,14.24,127.7,13,132,13c13.22,0,20.2,8.82,20.2,18.35,0,7.22-2.16,12.43-9.78,19.4l-10.9,9.94h21.08V73.48H110.78Z"/><path class="cls-3" d="M89.47,188.79c-43.48,0-78.86-38.5-78.86-85.83a5.81,5.81,0,0,1,11.62,0c0,40.92,30.16,74.21,67.24,74.21s67.24-33.29,67.24-74.21a5.81,5.81,0,0,1,11.62,0C168.32,150.29,132.95,188.79,89.47,188.79Z"/></svg>