<?xml version="1.0" encoding="utf-8"?>
<!-- Generator: Adobe Illustrator 18.0.0, SVG Export Plug-In . SVG Version: 6.00 Build 0)  -->
<!DOCTYPE svg PUBLIC "-//W3C//DTD SVG 1.1//EN" "http://www.w3.org/Graphics/SVG/1.1/DTD/svg11.dtd">
<svg version="1.1" id="Layer_1" xmlns="http://www.w3.org/2000/svg" xmlns:xlink="http://www.w3.org/1999/xlink" x="0px" y="0px"
	 viewBox="186.9 0 468.1 234" enable-background="new 186.9 0 468.1 234" xml:space="preserve">
<g>
	<g>
		<g>
			<path fill="#FFFFFF" d="M554.6,26.2c0.3,1.1-0.3,2.2-1.4,2.5l-4.9,1.3c-1.1,0.3-2.2-0.3-2.5-1.4l-0.7-2.7
				c-0.3-1.1,0.3-2.2,1.4-2.5l4.9-1.3c1.1-0.3,2.2,0.4,2.5,1.4L554.6,26.2z"/>
			<path fill="#888B8D" d="M548,26.4c-0.3,0.1-0.7-0.1-0.8-0.4l-0.4-1.5c-0.1-0.3,0.1-0.7,0.4-0.8l0.8-0.2c0.3-0.1,0.7,0.1,0.8,0.4
				l0.4,1.5c0.1,0.3-0.1,0.7-0.4,0.8L548,26.4z"/>
			<path fill="#888B8D" d="M550.8,25.6c-0.3,0.1-0.7-0.1-0.8-0.4l-0.4-1.5c-0.1-0.3,0.1-0.7,0.4-0.8l0.8-0.2
				c0.3-0.1,0.7,0.1,0.8,0.4l0.4,1.5c0.1,0.3-0.1,0.7-0.4,0.8L550.8,25.6z"/>
			<path fill="#888B8D" d="M548.8,29.4c-0.3,0.1-0.7-0.1-0.8-0.4l-0.4-1.5c-0.1-0.3,0.1-0.7,0.4-0.8l0.8-0.2
				c0.3-0.1,0.7,0.1,0.8,0.4l0.4,1.5c0.1,0.3-0.1,0.7-0.4,0.8L548.8,29.4z"/>
			<path fill="#888B8D" d="M551.5,28.6c-0.3,0.1-0.7-0.1-0.8-0.4l-0.4-1.5c-0.1-0.3,0.1-0.7,0.4-0.8l0.8-0.2
				c0.3-0.1,0.7,0.1,0.8,0.4l0.4,1.5c0.1,0.3-0.1,0.7-0.4,0.8L551.5,28.6z"/>
		</g>
		<g>
			<path fill="#FFFFFF" d="M543.8,29.7c0.5,1,0.2,2.2-0.8,2.7l-4.5,2.4c-1,0.5-2.2,0.2-2.7-0.8l-1.3-2.4c-0.5-1-0.2-2.2,0.8-2.8
				l4.5-2.4c1-0.5,2.2-0.2,2.8,0.8L543.8,29.7z"/>
			<path fill="#888B8D" d="M537.3,31.5c-0.3,0.2-0.7,0.1-0.9-0.3l-0.8-1.4c-0.2-0.3-0.1-0.7,0.3-0.9l0.8-0.4
				c0.3-0.2,0.7-0.1,0.9,0.3l0.8,1.4c0.2,0.3,0.1,0.7-0.3,0.9L537.3,31.5z"/>
			<path fill="#888B8D" d="M539.9,30.1c-0.3,0.2-0.7,0.1-0.9-0.3l-0.8-1.4c-0.2-0.3-0.1-0.7,0.3-0.9l0.8-0.4
				c0.3-0.2,0.7-0.1,0.9,0.3l0.8,1.4c0.2,0.3,0.1,0.7-0.3,0.9L539.9,30.1z"/>
			<path fill="#888B8D" d="M538.8,34.2c-0.3,0.2-0.7,0.1-0.9-0.3l-0.8-1.4c-0.2-0.3-0.1-0.7,0.3-0.9l0.8-0.4
				c0.3-0.2,0.7-0.1,0.9,0.3l0.8,1.4c0.2,0.3,0.1,0.7-0.3,0.9L538.8,34.2z"/>
			<path fill="#888B8D" d="M541.3,32.8c-0.3,0.2-0.7,0.1-0.9-0.3l-0.8-1.4c-0.2-0.3-0.1-0.7,0.3-0.9l0.8-0.4
				c0.3-0.2,0.7-0.1,0.9,0.3l0.8,1.4c0.2,0.3,0.1,0.7-0.3,0.9L541.3,32.8z"/>
		</g>
		<g>
			<path fill="#FFFFFF" d="M533.9,35.9c0.8,0.8,0.7,2.1-0.1,2.9l-3.7,3.5c-0.8,0.8-2.1,0.7-2.9-0.1l-1.9-2c-0.8-0.8-0.7-2.1,0.1-2.9
				l3.7-3.5c0.8-0.8,2.1-0.7,2.9,0.1L533.9,35.9z"/>
			<path fill="#888B8D" d="M528.1,39.2c-0.3,0.2-0.7,0.2-0.9-0.1l-1.1-1.2c-0.2-0.3-0.2-0.7,0.1-0.9l0.7-0.6
				c0.3-0.2,0.7-0.2,0.9,0.1l1.1,1.2c0.2,0.3,0.2,0.7-0.1,0.9L528.1,39.2z"/>
			<path fill="#888B8D" d="M530.2,37.2c-0.3,0.2-0.7,0.2-0.9-0.1l-1.1-1.1c-0.2-0.3-0.2-0.7,0.1-0.9l0.7-0.6
				c0.3-0.2,0.7-0.2,0.9,0.1l1.1,1.2c0.2,0.3,0.2,0.7-0.1,0.9L530.2,37.2z"/>
			<path fill="#888B8D" d="M530.2,41.5c-0.3,0.2-0.7,0.2-0.9-0.1l-1.1-1.2c-0.2-0.3-0.2-0.7,0.1-0.9l0.7-0.6
				c0.3-0.2,0.7-0.2,0.9,0.1l1.1,1.2c0.2,0.3,0.2,0.7-0.1,0.9L530.2,41.5z"/>
			<path fill="#888B8D" d="M532.2,39.5c-0.3,0.2-0.7,0.2-0.9-0.1l-1.1-1.1c-0.2-0.3-0.2-0.7,0.1-0.9l0.7-0.6
				c0.3-0.2,0.7-0.2,0.9,0.1l1.1,1.2c0.2,0.3,0.2,0.7-0.1,0.9L532.2,39.5z"/>
		</g>
		<g>
			<path fill="#FFFFFF" d="M525.2,43.6c0.9,0.6,1.2,1.8,0.7,2.8l-2.7,4.3c-0.6,0.9-1.8,1.2-2.8,0.7l-2.3-1.5
				c-0.9-0.6-1.2-1.8-0.7-2.8l2.7-4.3c0.6-0.9,1.8-1.2,2.8-0.7L525.2,43.6z"/>
			<path fill="#888B8D" d="M520.5,48.2c-0.2,0.3-0.6,0.4-0.9,0.2l-1.4-0.9c-0.3-0.2-0.4-0.5-0.2-0.9l0.4-0.7
				c0.2-0.3,0.5-0.4,0.9-0.2l1.4,0.9c0.3,0.2,0.4,0.6,0.2,0.9L520.5,48.2z"/>
			<path fill="#888B8D" d="M522,45.8c-0.2,0.3-0.5,0.4-0.9,0.2l-1.4-0.9c-0.3-0.2-0.4-0.6-0.2-0.9l0.4-0.7c0.2-0.3,0.5-0.4,0.9-0.2
				l1.4,0.9c0.3,0.2,0.4,0.5,0.2,0.9L522,45.8z"/>
			<path fill="#888B8D" d="M523.1,49.9c-0.2,0.3-0.6,0.4-0.9,0.2l-1.4-0.9c-0.3-0.2-0.4-0.5-0.2-0.9l0.4-0.7
				c0.2-0.3,0.5-0.4,0.9-0.2l1.4,0.9c0.3,0.2,0.4,0.6,0.2,0.9L523.1,49.9z"/>
			<path fill="#888B8D" d="M524.6,47.4c-0.2,0.3-0.5,0.4-0.9,0.2l-1.4-0.9c-0.3-0.2-0.4-0.6-0.2-0.9l0.4-0.7
				c0.2-0.3,0.6-0.4,0.9-0.2l1.4,0.9c0.3,0.2,0.4,0.6,0.2,0.9L524.6,47.4z"/>
		</g>
		<g>
			<path fill="#FFFFFF" d="M518.2,53.7c1,0.5,1.4,1.7,0.9,2.7l-2.2,4.6c-0.5,1-1.7,1.4-2.7,0.9l-2.5-1.2c-1-0.5-1.4-1.7-0.9-2.7
				l2.2-4.6c0.5-1,1.7-1.4,2.7-0.9L518.2,53.7z"/>
			<path fill="#888B8D" d="M514,58.9c-0.2,0.3-0.5,0.4-0.8,0.3l-1.4-0.7c-0.3-0.2-0.4-0.5-0.3-0.8l0.4-0.8c0.2-0.3,0.5-0.4,0.8-0.3
				l1.4,0.7c0.3,0.2,0.4,0.5,0.3,0.8L514,58.9z"/>
			<path fill="#888B8D" d="M515.3,56.3c-0.2,0.3-0.5,0.4-0.8,0.3l-1.4-0.7c-0.3-0.2-0.4-0.5-0.3-0.8l0.4-0.8
				c0.2-0.3,0.5-0.4,0.8-0.3l1.4,0.7c0.3,0.2,0.4,0.5,0.3,0.8L515.3,56.3z"/>
			<path fill="#888B8D" d="M516.8,60.3c-0.2,0.3-0.5,0.4-0.8,0.3l-1.4-0.7c-0.3-0.2-0.4-0.5-0.3-0.8l0.4-0.8
				c0.2-0.3,0.5-0.4,0.8-0.3l1.4,0.7c0.3,0.2,0.4,0.5,0.3,0.8L516.8,60.3z"/>
			<path fill="#888B8D" d="M518.1,57.7c-0.2,0.3-0.5,0.4-0.8,0.3l-1.4-0.7c-0.3-0.2-0.4-0.5-0.3-0.8l0.4-0.8
				c0.2-0.3,0.5-0.4,0.8-0.3l1.4,0.7c0.3,0.2,0.4,0.5,0.3,0.8L518.1,57.7z"/>
		</g>
		<g>
			<path fill="#FFFFFF" d="M513.2,65.3c1.1,0.3,1.7,1.4,1.4,2.5l-1.4,4.9c-0.3,1.1-1.4,1.7-2.5,1.4l-2.7-0.8
				c-1.1-0.3-1.7-1.4-1.4-2.5L508,66c0.3-1.1,1.4-1.7,2.5-1.4L513.2,65.3z"/>
			<path fill="#888B8D" d="M510,71.1c-0.1,0.3-0.4,0.5-0.8,0.4l-1.5-0.4c-0.3-0.1-0.5-0.4-0.4-0.8l0.2-0.8c0.1-0.3,0.4-0.5,0.8-0.4
				l1.5,0.4c0.3,0.1,0.5,0.4,0.4,0.8L510,71.1z"/>
			<path fill="#888B8D" d="M510.7,68.3c-0.1,0.3-0.4,0.5-0.8,0.4l-1.5-0.4c-0.3-0.1-0.5-0.4-0.4-0.8l0.2-0.8
				c0.1-0.3,0.4-0.5,0.8-0.4l1.5,0.4c0.3,0.1,0.5,0.4,0.4,0.8L510.7,68.3z"/>
			<path fill="#888B8D" d="M512.9,72c-0.1,0.3-0.4,0.5-0.8,0.4l-1.5-0.4c-0.3-0.1-0.5-0.4-0.4-0.8l0.2-0.8c0.1-0.3,0.4-0.5,0.8-0.4
				l1.5,0.4c0.3,0.1,0.5,0.4,0.4,0.8L512.9,72z"/>
			<path fill="#888B8D" d="M513.7,69.2c-0.1,0.3-0.4,0.5-0.8,0.4l-1.5-0.4c-0.3-0.1-0.5-0.4-0.4-0.8l0.2-0.8
				c0.1-0.3,0.4-0.5,0.8-0.4l1.5,0.4c0.3,0.1,0.5,0.4,0.4,0.8L513.7,69.2z"/>
		</g>
		<g>
			<path fill="#FFFFFF" d="M556.8,26.2c-0.3,1.1,0.3,2.2,1.4,2.5l4.9,1.3c1.1,0.3,2.2-0.3,2.5-1.4l0.7-2.7c0.3-1.1-0.3-2.2-1.4-2.5
				l-4.9-1.3c-1.1-0.3-2.2,0.4-2.5,1.4L556.8,26.2z"/>
			<path fill="#888B8D" d="M563.4,26.4c0.3,0.1,0.7-0.1,0.8-0.4l0.4-1.5c0.1-0.3-0.1-0.7-0.4-0.8l-0.8-0.2c-0.3-0.1-0.7,0.1-0.8,0.4
				l-0.4,1.5c-0.1,0.3,0.1,0.7,0.4,0.8L563.4,26.4z"/>
			<path fill="#888B8D" d="M560.7,25.6c0.3,0.1,0.7-0.1,0.8-0.4l0.4-1.5c0.1-0.3-0.1-0.7-0.4-0.8l-0.8-0.2c-0.3-0.1-0.7,0.1-0.8,0.4
				l-0.4,1.5c-0.1,0.3,0.1,0.7,0.4,0.8L560.7,25.6z"/>
			<path fill="#888B8D" d="M562.7,29.4c0.3,0.1,0.7-0.1,0.8-0.4l0.4-1.5c0.1-0.3-0.1-0.7-0.4-0.8l-0.8-0.2c-0.3-0.1-0.7,0.1-0.8,0.4
				l-0.4,1.5c-0.1,0.3,0.1,0.7,0.4,0.8L562.7,29.4z"/>
			<path fill="#888B8D" d="M559.9,28.6c0.3,0.1,0.7-0.1,0.8-0.4l0.4-1.5c0.1-0.3-0.1-0.7-0.4-0.8l-0.8-0.2c-0.3-0.1-0.7,0.1-0.8,0.4
				l-0.4,1.5c-0.1,0.3,0.1,0.7,0.4,0.8L559.9,28.6z"/>
		</g>
		<g>
			<path fill="#FFFFFF" d="M567.7,29.7c-0.5,1-0.2,2.2,0.8,2.7l4.5,2.4c1,0.5,2.2,0.2,2.7-0.8l1.3-2.4c0.5-1,0.2-2.2-0.8-2.8
				l-4.5-2.4c-1-0.5-2.2-0.2-2.8,0.8L567.7,29.7z"/>
			<path fill="#888B8D" d="M574,31.5c0.3,0.2,0.7,0.1,0.9-0.3l0.8-1.4c0.2-0.3,0.1-0.7-0.3-0.9l-0.8-0.4c-0.3-0.2-0.7-0.1-0.9,0.3
				l-0.8,1.4c-0.2,0.3-0.1,0.7,0.3,0.9L574,31.5z"/>
			<path fill="#888B8D" d="M571.5,30.1c0.3,0.2,0.7,0.1,0.9-0.3l0.8-1.4c0.2-0.3,0.1-0.7-0.3-0.9l-0.8-0.4c-0.3-0.2-0.7-0.1-0.9,0.3
				l-0.8,1.4c-0.2,0.3-0.1,0.7,0.3,0.9L571.5,30.1z"/>
			<path fill="#888B8D" d="M572.6,34.2c0.3,0.2,0.7,0.1,0.9-0.3l0.8-1.4c0.2-0.3,0.1-0.7-0.3-0.9l-0.8-0.4c-0.3-0.2-0.7-0.1-0.9,0.3
				l-0.8,1.4c-0.2,0.3-0.1,0.7,0.3,0.9L572.6,34.2z"/>
			<path fill="#888B8D" d="M570.1,32.8c0.3,0.2,0.7,0.1,0.9-0.3l0.8-1.4c0.2-0.3,0.1-0.7-0.3-0.9l-0.8-0.4c-0.3-0.2-0.7-0.1-0.9,0.3
				l-0.8,1.4c-0.2,0.3-0.1,0.7,0.3,0.9L570.1,32.8z"/>
		</g>
		<g>
			<path fill="#FFFFFF" d="M577.6,35.9c-0.8,0.8-0.7,2.1,0.1,2.9l3.7,3.5c0.8,0.8,2.1,0.7,2.9-0.1l1.9-2c0.8-0.8,0.7-2.1-0.1-2.9
				l-3.7-3.5c-0.8-0.8-2.1-0.7-2.9,0.1L577.6,35.9z"/>
			<path fill="#888B8D" d="M583.3,39.2c0.3,0.2,0.7,0.2,0.9-0.1l1.1-1.2c0.2-0.3,0.2-0.7-0.1-0.9l-0.7-0.6c-0.3-0.2-0.7-0.2-0.9,0.1
				l-1.1,1.2c-0.2,0.3-0.2,0.7,0.1,0.9L583.3,39.2z"/>
			<path fill="#888B8D" d="M581.2,37.2c0.3,0.2,0.7,0.2,0.9-0.1l1.1-1.1c0.2-0.3,0.2-0.7-0.1-0.9l-0.7-0.6c-0.3-0.2-0.7-0.2-0.9,0.1
				l-1.1,1.2c-0.2,0.3-0.2,0.7,0.1,0.9L581.2,37.2z"/>
			<path fill="#888B8D" d="M581.2,41.5c0.3,0.2,0.7,0.2,0.9-0.1l1.1-1.2c0.2-0.3,0.2-0.7-0.1-0.9l-0.7-0.6c-0.3-0.2-0.7-0.2-0.9,0.1
				l-1.1,1.2c-0.2,0.3-0.2,0.7,0.1,0.9L581.2,41.5z"/>
			<path fill="#888B8D" d="M579.2,39.5c0.3,0.2,0.7,0.2,0.9-0.1l1.1-1.1c0.2-0.3,0.2-0.7-0.1-0.9l-0.7-0.6c-0.3-0.2-0.7-0.2-0.9,0.1
				l-1.1,1.2c-0.2,0.3-0.2,0.7,0.1,0.9L579.2,39.5z"/>
		</g>
		<g>
			<path fill="#FFFFFF" d="M586.2,43.6c-0.9,0.6-1.2,1.8-0.7,2.8l2.7,4.3c0.6,0.9,1.8,1.2,2.8,0.7l2.3-1.5c0.9-0.6,1.2-1.8,0.7-2.8
				l-2.7-4.3c-0.6-0.9-1.8-1.2-2.8-0.7L586.2,43.6z"/>
			<path fill="#888B8D" d="M590.9,48.2c0.2,0.3,0.6,0.4,0.9,0.2l1.4-0.9c0.3-0.2,0.4-0.5,0.2-0.9l-0.4-0.7c-0.2-0.3-0.6-0.4-0.9-0.2
				l-1.4,0.9c-0.3,0.2-0.4,0.6-0.2,0.9L590.9,48.2z"/>
			<path fill="#888B8D" d="M589.4,45.8c0.2,0.3,0.5,0.4,0.9,0.2l1.4-0.9c0.3-0.2,0.4-0.6,0.2-0.9l-0.4-0.7c-0.2-0.3-0.5-0.4-0.9-0.2
				l-1.4,0.9c-0.3,0.2-0.4,0.5-0.2,0.9L589.4,45.8z"/>
			<path fill="#888B8D" d="M588.3,49.9c0.2,0.3,0.5,0.4,0.9,0.2l1.4-0.9c0.3-0.2,0.4-0.5,0.2-0.9l-0.4-0.7c-0.2-0.3-0.6-0.4-0.9-0.2
				l-1.4,0.9c-0.3,0.2-0.4,0.6-0.2,0.9L588.3,49.9z"/>
			<path fill="#888B8D" d="M586.8,47.4c0.2,0.3,0.5,0.4,0.9,0.2l1.4-0.9c0.3-0.2,0.4-0.6,0.2-0.9l-0.4-0.7c-0.2-0.3-0.5-0.4-0.9-0.2
				l-1.4,0.9c-0.3,0.2-0.4,0.6-0.2,0.9L586.8,47.4z"/>
		</g>
		<g>
			<path fill="#FFFFFF" d="M593.2,53.7c-1,0.5-1.4,1.7-0.9,2.7l2.2,4.6c0.5,1,1.7,1.4,2.7,0.9l2.5-1.2c1-0.5,1.4-1.7,0.9-2.7
				l-2.2-4.6c-0.5-1-1.7-1.4-2.7-0.9L593.2,53.7z"/>
			<path fill="#888B8D" d="M597.3,58.9c0.2,0.3,0.5,0.4,0.8,0.3l1.4-0.7c0.3-0.2,0.4-0.5,0.3-0.8l-0.4-0.8c-0.2-0.3-0.5-0.4-0.8-0.3
				l-1.4,0.7c-0.3,0.2-0.4,0.5-0.3,0.8L597.3,58.9z"/>
			<path fill="#888B8D" d="M596.1,56.3c0.2,0.3,0.5,0.4,0.8,0.3l1.4-0.7c0.3-0.2,0.4-0.5,0.3-0.8l-0.4-0.8c-0.2-0.3-0.5-0.4-0.8-0.3
				l-1.4,0.7c-0.3,0.2-0.4,0.5-0.3,0.8L596.1,56.3z"/>
			<path fill="#888B8D" d="M594.6,60.3c0.2,0.3,0.5,0.4,0.8,0.3l1.4-0.7c0.3-0.2,0.4-0.5,0.3-0.8l-0.4-0.8c-0.2-0.3-0.5-0.4-0.8-0.3
				l-1.4,0.7c-0.3,0.2-0.4,0.5-0.3,0.8L594.6,60.3z"/>
			<path fill="#888B8D" d="M593.4,57.7c0.2,0.3,0.5,0.4,0.8,0.3l1.4-0.7c0.3-0.2,0.4-0.5,0.3-0.8l-0.4-0.8c-0.2-0.3-0.5-0.4-0.8-0.3
				l-1.4,0.7c-0.3,0.2-0.4,0.5-0.3,0.8L593.4,57.7z"/>
		</g>
		<g>
			<path fill="#FFFFFF" d="M598.3,65.3c-1.1,0.3-1.7,1.4-1.4,2.5l1.4,4.9c0.3,1.1,1.4,1.7,2.5,1.4l2.7-0.8c1.1-0.3,1.7-1.4,1.4-2.5
				l-1.4-4.9c-0.3-1.1-1.4-1.7-2.5-1.4L598.3,65.3z"/>
			<path fill="#888B8D" d="M601.5,71.1c0.1,0.3,0.4,0.5,0.8,0.4l1.5-0.4c0.3-0.1,0.5-0.4,0.4-0.8l-0.2-0.8c-0.1-0.3-0.4-0.5-0.8-0.4
				l-1.5,0.4c-0.3,0.1-0.5,0.4-0.4,0.8L601.5,71.1z"/>
			<path fill="#888B8D" d="M600.7,68.3c0.1,0.3,0.4,0.5,0.8,0.4l1.5-0.4c0.3-0.1,0.5-0.4,0.4-0.8l-0.2-0.8c-0.1-0.3-0.4-0.5-0.8-0.4
				l-1.5,0.4c-0.3,0.1-0.5,0.4-0.4,0.8L600.7,68.3z"/>
			<path fill="#888B8D" d="M598.5,72c0.1,0.3,0.4,0.5,0.8,0.4l1.5-0.4c0.3-0.1,0.5-0.4,0.4-0.8l-0.2-0.8c-0.1-0.3-0.4-0.5-0.8-0.4
				l-1.5,0.4c-0.3,0.1-0.5,0.4-0.4,0.8L598.5,72z"/>
			<path fill="#888B8D" d="M597.8,69.2c0.1,0.3,0.4,0.5,0.8,0.4l1.5-0.4c0.3-0.1,0.5-0.4,0.4-0.8l-0.2-0.8c-0.1-0.3-0.4-0.5-0.8-0.4
				l-1.5,0.4c-0.3,0.1-0.5,0.4-0.4,0.8L597.8,69.2z"/>
		</g>
		<path fill="none" stroke="#888B8D" stroke-width="2.0333" d="M508.7,76.3c0,0,8.5-47.4,47.4-51.3c0,0,35.3,2.7,47.4,51.3"/>
	</g>
	<path fill="#DBDCDD" d="M235.6,74.1c1.8,0.1,3.6,0.5,5.4,0.3c0.5-0.1,1.3-0.2,1.5-0.8c5.2-21.1,13.7-42.5,34.8-42.5
		s30,21.6,35.2,42.8c0,0,10.8,2,10.4-4.3c-1.6-27.2-20.4-49.4-45.6-49.4s-45.6,22.1-45.6,49.4C231.7,69.5,230.2,73.8,235.6,74.1z"/>
	<path fill="#E7E8E8" d="M235.6,74.1c1.8,0.1,3.6,0.5,5.4,0.3c0.5-0.1,1.3-0.2,1.5-0.8c5.2-21.1,13.7-42.5,34.8-42.5
		s30,21.6,35.2,42.8c0,0,10.8,2,10.4-4.3c-1.6-27.2-20.4-49.4-45.6-49.4s-45.6,22.1-45.6,49.4C231.7,69.5,230.2,73.8,235.6,74.1z"/>
	<g>
		<g>
			<g>
				<path fill="#888B8D" d="M300.4,63.8v-7.1c0-3.9-3.2-7.1-7.1-7.1c-3.9,0-7.1,3.2-7.1,7.1v7.1h2.1v-7.1c0-2.7,2.2-4.9,4.9-4.9
					s4.9,2.2,4.9,4.9v7.1H300.4z"/>
			</g>
			<g>
				<g>
					<path fill="#00C7B1" d="M272.3,56.2c0.3-2.4,2.4-4.3,4.9-4.3s4.6,1.8,4.9,4.3h2.1c-0.3-3.6-3.3-6.4-7-6.4c-3.6,0-6.7,2.8-7,6.4
						H272.3z"/>
					<path fill="#00C7B1" d="M282.1,57.5c-0.3,2.4-2.4,4.3-4.9,4.3s-4.6-1.8-4.9-4.3h-2.1c0.3,3.6,3.3,6.4,7,6.4
						c3.6,0,6.7-2.8,7-6.4H282.1z"/>
				</g>
			</g>
			<path fill="#888B8D" d="M268,57.5c0-0.2,0.1-0.4,0.1-0.7c0-3.9-3.2-7.1-7.1-7.1c-3.9,0-7.1,3.2-7.1,7.1s3.2,7.1,7.1,7.1
				c2.9,0,5.4-1.7,6.5-4.3h-2.4c-0.9,1.3-2.4,2.2-4.1,2.2c-2.5,0-4.6-1.8-4.9-4.3h9.8l0,0H268z M261,51.9c2.2,0,4.1,1.5,4.7,3.5
				h-9.4C256.9,53.4,258.8,51.9,261,51.9z"/>
		</g>
		<g>
			<path fill="#00C7B1" d="M259,72.6l-0.1-0.6h-0.1c-0.2,0.3-0.4,0.4-0.6,0.5c-0.2,0.1-0.5,0.2-0.8,0.2c-0.4,0-0.7-0.1-1-0.3
				c-0.2-0.2-0.3-0.5-0.3-0.9c0-0.8,0.7-1.2,2-1.3h0.7v-0.3c0-0.3-0.1-0.5-0.2-0.7c-0.2-0.2-0.4-0.2-0.7-0.2c-0.3,0-0.8,0.1-1.2,0.3
				l-0.2-0.5c0.2-0.1,0.4-0.2,0.7-0.3s0.5-0.1,0.7-0.1c0.5,0,0.9,0.1,1.1,0.3c0.2,0.2,0.4,0.6,0.4,1v2.8
				C259.4,72.6,259,72.6,259,72.6z M257.5,72.2c0.4,0,0.7-0.1,0.9-0.3c0.2-0.2,0.3-0.5,0.3-0.9v-0.4h-0.7c-0.5,0-0.9,0.1-1.1,0.2
				c-0.2,0.2-0.3,0.3-0.3,0.7c0,0.2,0.1,0.4,0.2,0.5C257.1,72.1,257.3,72.2,257.5,72.2z"/>
			<path fill="#00C7B1" d="M264.7,72.6H264v-5.9h0.7V72.6z"/>
			<path fill="#00C7B1" d="M269.2,67.4c0-0.2,0.1-0.3,0.1-0.3c0.1-0.1,0.2-0.1,0.3-0.1c0.1,0,0.2,0.1,0.3,0.1
				c0.1,0.1,0.1,0.2,0.1,0.3c0,0.2-0.1,0.3-0.1,0.3c-0.1,0.1-0.2,0.1-0.3,0.1c-0.1,0-0.2-0.1-0.3-0.1
				C269.2,67.6,269.2,67.5,269.2,67.4z M269.9,72.6h-0.7v-4.2h0.7V72.6z"/>
			<path fill="#00C7B1" d="M277.9,68.5v0.4l-0.8,0.1c0.1,0.1,0.1,0.2,0.2,0.3c0.1,0.2,0.1,0.3,0.1,0.5c0,0.4-0.2,0.7-0.4,1
				c-0.3,0.2-0.7,0.4-1.1,0.4c-0.1,0-0.2,0-0.3-0.1c-0.3,0.2-0.4,0.3-0.4,0.5c0,0.1,0.1,0.2,0.2,0.3c0.1,0.1,0.3,0.1,0.5,0.1h0.8
				c0.4,0,0.8,0.1,1,0.3c0.2,0.2,0.4,0.5,0.4,0.8c0,0.4-0.2,0.8-0.5,1s-0.9,0.4-1.6,0.4c-0.5,0-1-0.1-1.2-0.3
				c-0.3-0.2-0.4-0.5-0.4-0.9c0-0.3,0.1-0.5,0.2-0.7c0.2-0.2,0.4-0.3,0.7-0.4c-0.1-0.1-0.2-0.1-0.3-0.2c-0.1-0.1-0.1-0.2-0.1-0.3
				c0-0.2,0.1-0.3,0.1-0.4c0.1-0.1,0.2-0.2,0.4-0.3c-0.2-0.1-0.4-0.2-0.5-0.4c-0.1-0.2-0.2-0.4-0.2-0.7c0-0.4,0.2-0.8,0.4-1
				c0.3-0.2,0.7-0.4,1.1-0.4c0.2,0,0.4,0,0.6,0.1L277.9,68.5L277.9,68.5z M274.6,73.3c0,0.2,0.1,0.4,0.3,0.5s0.4,0.2,0.8,0.2
				c0.5,0,0.9-0.1,1.2-0.2c0.3-0.2,0.4-0.4,0.4-0.7c0-0.2-0.1-0.4-0.2-0.5s-0.4-0.1-0.8-0.1h-0.8c-0.3,0-0.5,0.1-0.7,0.2
				C274.6,72.9,274.6,73.1,274.6,73.3z M274.9,69.8c0,0.3,0.1,0.5,0.3,0.7c0.2,0.2,0.4,0.2,0.7,0.2c0.6,0,0.9-0.3,0.9-0.9
				s-0.3-0.9-0.9-0.9c-0.3,0-0.5,0.1-0.7,0.2C274.9,69.3,274.9,69.5,274.9,69.8z"/>
			<path fill="#00C7B1" d="M284.8,72.6V70c0-0.3-0.1-0.6-0.2-0.8c-0.2-0.2-0.4-0.3-0.7-0.3c-0.4,0-0.8,0.1-1,0.3
				c-0.2,0.2-0.3,0.6-0.3,1.1v2.2h-0.7v-4.1h0.5l0.1,0.5h0.1c0.1-0.2,0.3-0.4,0.5-0.5c0.2-0.1,0.5-0.2,0.8-0.2
				c0.5,0,0.9,0.1,1.1,0.4c0.3,0.2,0.4,0.7,0.4,1.1v2.7L284.8,72.6L284.8,72.6z"/>
			<path fill="#00C7B1" d="M291.7,72.7c-0.6,0-1.1-0.2-1.5-0.5s-0.5-0.9-0.5-1.6c0-0.7,0.2-1.2,0.5-1.6c0.3-0.4,0.8-0.6,1.3-0.6
				s0.9,0.2,1.2,0.5s0.4,0.8,0.4,1.4v0.4h-2.9c0,0.5,0.1,0.9,0.4,1.1c0.2,0.3,0.5,0.4,1,0.4s0.9-0.1,1.3-0.3v0.5
				c-0.2,0.1-0.4,0.2-0.7,0.2C292.1,72.6,292,72.7,291.7,72.7z M291.6,68.9c-0.3,0-0.6,0.1-0.8,0.3c-0.2,0.2-0.3,0.5-0.3,0.9h2.2
				c0-0.4-0.1-0.7-0.3-0.9C292.1,69.1,291.9,68.9,291.6,68.9z"/>
			<path fill="#00C7B1" d="M299.5,68.4c0.2,0,0.3,0,0.5,0.1l-0.1,0.6c-0.2-0.1-0.3-0.1-0.4-0.1c-0.3,0-0.6,0.2-0.9,0.4
				c-0.2,0.3-0.4,0.6-0.4,1v2.2h-0.7v-4.2h0.5l0.1,0.8h0.1c0.2-0.3,0.3-0.5,0.5-0.6C298.9,68.5,299.2,68.4,299.5,68.4z"/>
		</g>
	</g>
	<g>
		<g>
			<g>
				<path fill="#4DB9E7" d="M555.7,91.9c-6.1,0-11,4.9-11,11s4.9,11,11,11s11-4.9,11-11C566.7,96.8,561.8,91.9,555.7,91.9z"/>
			</g>
			<path fill="#FFFFFF" d="M562.3,99.7l-7.8,7.8c-0.3,0.3-0.7,0.6-0.8,0.6c-0.1,0-0.4-0.3-0.8-0.6l-3.9-3.9c-0.3-0.3-0.3-0.9,0-1.2
				l0.5-0.5c0.3-0.3,0.9-0.3,1.2,0l2.3,2.3c0.3,0.3,0.9,0.3,1.2,0l6.2-6.2c0.3-0.3,0.9-0.3,1.2,0l0.5,0.5
				C562.7,98.8,562.7,99.3,562.3,99.7z"/>
		</g>
		<g>
			<g>
				<path fill="#4DB9E7" d="M277.2,91.9c-6.1,0-11,4.9-11,11s4.9,11,11,11s11-4.9,11-11C288.2,96.8,283.3,91.9,277.2,91.9z"/>
			</g>
			<path fill="#FFFFFF" d="M284.6,99.3l-8.7,8.7c-0.4,0.4-0.8,0.7-0.9,0.7s-0.5-0.3-0.9-0.7l-4.3-4.3c-0.4-0.4-0.4-1,0-1.4l0.6-0.6
				c0.4-0.4,1-0.4,1.4,0l2.5,2.5c0.4,0.4,1,0.4,1.4,0l6.9-6.9c0.4-0.4,1-0.4,1.4,0l0.6,0.6C284.9,98.4,284.9,98.9,284.6,99.3z"/>
		</g>
		<g>
			<path fill="#888B8D" d="M372,105.8h-0.8v-6.2h-2.2v-0.7h5.2v0.7h-2.2L372,105.8L372,105.8z"/>
			<path fill="#888B8D" d="M377.5,100.4c0.2,0,0.4,0,0.7,0.1l-0.1,0.8c-0.2-0.1-0.4-0.1-0.6-0.1c-0.4,0-0.8,0.2-1.1,0.5
				c-0.3,0.3-0.4,0.8-0.4,1.3v2.8h-0.8v-5.2h0.7l0.1,1h0.1c0.2-0.3,0.4-0.6,0.7-0.8C376.9,100.5,377.2,100.4,377.5,100.4z"/>
			<path fill="#888B8D" d="M381.3,105.8c-0.8,0-1.4-0.2-1.8-0.7c-0.4-0.5-0.7-1.1-0.7-2c0-0.9,0.2-1.5,0.6-2c0.4-0.5,1-0.8,1.7-0.8
				c0.7,0,1.2,0.2,1.6,0.7c0.4,0.4,0.6,1,0.6,1.7v0.5h-3.6c0,0.6,0.2,1.1,0.5,1.4c0.3,0.3,0.7,0.5,1.2,0.5c0.5,0,1.1-0.1,1.7-0.4
				v0.7c-0.3,0.1-0.5,0.2-0.8,0.3C382,105.8,381.7,105.8,381.3,105.8z M381.1,101.1c-0.4,0-0.8,0.2-1,0.4c-0.3,0.3-0.4,0.7-0.4,1.1
				h2.7c0-0.5-0.1-0.9-0.3-1.1C381.9,101.3,381.5,101.1,381.1,101.1z"/>
			<path fill="#888B8D" d="M387.8,105.8l-0.2-0.8h-0.1c-0.3,0.3-0.5,0.5-0.8,0.7c-0.3,0.1-0.6,0.2-1,0.2c-0.5,0-0.9-0.1-1.2-0.4
				c-0.3-0.3-0.4-0.7-0.4-1.1c0-1,0.9-1.6,2.6-1.7l0.9-0.1v-0.3c0-0.4-0.1-0.7-0.3-0.9s-0.4-0.3-0.9-0.3c-0.4,0-0.9,0.1-1.5,0.4
				l-0.2-0.6c0.3-0.2,0.5-0.3,0.9-0.3s0.6-0.1,0.9-0.1c0.6,0,1.1,0.2,1.4,0.4c0.3,0.3,0.4,0.7,0.4,1.4v3.6
				C388.5,105.8,387.8,105.8,387.8,105.8z M386,105.2c0.5,0,0.9-0.1,1.1-0.4c0.3-0.3,0.4-0.7,0.4-1.1v-0.5l-0.8,0.1
				c-0.7,0-1.1,0.1-1.4,0.3c-0.3,0.2-0.4,0.4-0.4,0.8c0,0.3,0.1,0.5,0.3,0.7C385.4,105.1,385.7,105.2,386,105.2z"/>
			<path fill="#888B8D" d="M391.7,105.2c0.2,0,0.3,0,0.4-0.1c0.1-0.1,0.2-0.1,0.3-0.1v0.6c-0.1,0.1-0.2,0.1-0.4,0.1
				c-0.2,0-0.3,0.1-0.4,0.1c-1,0-1.5-0.5-1.5-1.6v-3.1h-0.8v-0.4l0.8-0.3l0.3-1.1h0.4v1.2h1.5v0.6h-1.5v3.1c0,0.3,0.1,0.5,0.2,0.7
				C391.3,105.1,391.5,105.2,391.7,105.2z"/>
			<path fill="#888B8D" d="M396.8,104.3c0,0.5-0.2,0.9-0.5,1.1c-0.4,0.3-0.9,0.4-1.5,0.4c-0.7,0-1.2-0.1-1.6-0.3v-0.7
				c0.3,0.1,0.5,0.2,0.8,0.3c0.3,0.1,0.5,0.1,0.8,0.1c0.4,0,0.7-0.1,1-0.2c0.3-0.2,0.3-0.3,0.3-0.6c0-0.2-0.1-0.4-0.3-0.5
				c-0.2-0.2-0.5-0.3-1-0.5c-0.5-0.2-0.8-0.3-1-0.5c-0.2-0.1-0.4-0.3-0.4-0.4c-0.1-0.2-0.2-0.4-0.2-0.6c0-0.4,0.2-0.8,0.5-1
				c0.4-0.3,0.8-0.4,1.4-0.4c0.5,0,1.1,0.1,1.6,0.3l-0.3,0.7c-0.5-0.2-1-0.3-1.4-0.3c-0.4,0-0.7,0.1-0.9,0.2s-0.3,0.3-0.3,0.5
				c0,0.2,0.1,0.3,0.1,0.4s0.2,0.2,0.3,0.3c0.2,0.1,0.5,0.2,0.9,0.4c0.6,0.2,1,0.4,1.2,0.7S396.8,104,396.8,104.3z"/>
			<path fill="#888B8D" d="M403.9,105.8l-2.4-6.2h-0.1c0.1,0.5,0.1,1.1,0.1,1.7v4.5h-0.8v-7h1.2l2.2,5.8h0.1l2.2-5.8h1.2v7h-0.8
				v-4.5c0-0.5,0-1.1,0.1-1.7h-0.1l-2.4,6.2C404.5,105.8,403.9,105.8,403.9,105.8z"/>
			<path fill="#888B8D" d="M412.8,105.8l-0.2-0.8h-0.1c-0.3,0.3-0.5,0.5-0.8,0.7c-0.3,0.1-0.6,0.2-1,0.2c-0.5,0-0.9-0.1-1.2-0.4
				c-0.3-0.3-0.4-0.7-0.4-1.1c0-1,0.9-1.6,2.6-1.7l0.9-0.1v-0.3c0-0.4-0.1-0.7-0.3-0.9c-0.2-0.2-0.4-0.3-0.9-0.3s-0.9,0.1-1.5,0.4
				l-0.2-0.6c0.3-0.2,0.5-0.3,0.9-0.3c0.3-0.1,0.6-0.1,0.9-0.1c0.6,0,1.1,0.2,1.4,0.4c0.3,0.3,0.4,0.7,0.4,1.4v3.6
				C413.4,105.8,412.8,105.8,412.8,105.8z M411,105.2c0.5,0,0.9-0.1,1.1-0.4c0.3-0.3,0.4-0.7,0.4-1.1v-0.5l-0.8,0.1
				c-0.7,0-1.1,0.1-1.4,0.3s-0.4,0.4-0.4,0.8c0,0.3,0.1,0.5,0.3,0.7C410.4,105.1,410.6,105.2,411,105.2z"/>
			<path fill="#888B8D" d="M415.8,105.8h-0.8v-7.4h0.8V105.8z"/>
			<path fill="#888B8D" d="M422,103.1c0,0.9-0.2,1.5-0.7,2c-0.4,0.5-1,0.7-1.8,0.7c-0.5,0-0.9-0.1-1.2-0.3s-0.7-0.5-0.8-0.9
				c-0.2-0.4-0.3-0.9-0.3-1.5c0-0.9,0.2-1.5,0.7-2s1-0.7,1.8-0.7c0.7,0,1.3,0.2,1.7,0.7C421.8,101.6,422,102.3,422,103.1z
				 M418,103.1c0,0.7,0.1,1.2,0.4,1.5c0.3,0.3,0.7,0.5,1.2,0.5s0.9-0.2,1.2-0.5c0.3-0.3,0.4-0.9,0.4-1.5c0-0.7-0.1-1.2-0.4-1.5
				c-0.3-0.3-0.7-0.5-1.2-0.5s-0.9,0.2-1.2,0.5C418.1,101.9,418,102.5,418,103.1z"/>
			<path fill="#888B8D" d="M425.4,105.8c-0.8,0-1.4-0.2-1.7-0.7c-0.4-0.5-0.6-1.1-0.6-2c0-0.9,0.2-1.6,0.7-2c0.4-0.5,1-0.7,1.8-0.7
				c0.3,0,0.5,0,0.8,0.1c0.3,0.1,0.4,0.1,0.6,0.2l-0.2,0.7c-0.2-0.1-0.4-0.1-0.6-0.2s-0.4-0.1-0.5-0.1c-1.1,0-1.6,0.7-1.6,2
				c0,0.7,0.1,1.1,0.4,1.5c0.3,0.3,0.7,0.5,1.1,0.5c0.4,0,0.9-0.1,1.4-0.3v0.7C426.4,105.8,426,105.8,425.4,105.8z"/>
			<path fill="#888B8D" d="M430.1,105.8c-0.8,0-1.4-0.2-1.7-0.7c-0.4-0.5-0.6-1.1-0.6-2c0-0.9,0.2-1.6,0.7-2c0.4-0.5,1-0.7,1.8-0.7
				c0.3,0,0.5,0,0.8,0.1c0.3,0.1,0.4,0.1,0.6,0.2l-0.2,0.7c-0.2-0.1-0.4-0.1-0.6-0.2s-0.4-0.1-0.5-0.1c-1.1,0-1.6,0.7-1.6,2
				c0,0.7,0.1,1.1,0.4,1.5c0.3,0.3,0.7,0.5,1.1,0.5c0.4,0,0.9-0.1,1.4-0.3v0.7C431.1,105.8,430.6,105.8,430.1,105.8z"/>
			<path fill="#888B8D" d="M433.5,105.8h-0.8v-7.4h0.8V105.8z"/>
			<path fill="#888B8D" d="M435.9,100.5v3.4c0,0.4,0.1,0.8,0.3,1c0.2,0.2,0.5,0.3,0.9,0.3c0.5,0,0.9-0.2,1.2-0.4
				c0.3-0.3,0.4-0.8,0.4-1.5v-2.8h0.8v5.2h-0.7l-0.1-0.7h-0.1c-0.2,0.3-0.4,0.4-0.7,0.6c-0.3,0.2-0.6,0.2-1,0.2
				c-0.7,0-1.1-0.2-1.4-0.4c-0.3-0.3-0.5-0.8-0.5-1.5v-3.4H435.9z"/>
			<path fill="#888B8D" d="M444.5,104.3c0,0.5-0.2,0.9-0.5,1.1c-0.4,0.3-0.9,0.4-1.5,0.4c-0.7,0-1.2-0.1-1.6-0.3v-0.7
				c0.3,0.1,0.5,0.2,0.8,0.3c0.3,0.1,0.5,0.1,0.8,0.1c0.4,0,0.7-0.1,1-0.2c0.3-0.2,0.3-0.3,0.3-0.6c0-0.2-0.1-0.4-0.3-0.5
				c-0.2-0.2-0.5-0.3-1-0.5c-0.5-0.2-0.8-0.3-1-0.5c-0.2-0.1-0.4-0.3-0.4-0.4c-0.1-0.2-0.2-0.4-0.2-0.6c0-0.4,0.2-0.8,0.5-1
				c0.4-0.3,0.8-0.4,1.4-0.4c0.5,0,1.1,0.1,1.6,0.3l-0.3,0.7c-0.5-0.2-1-0.3-1.4-0.3c-0.4,0-0.7,0.1-0.9,0.2s-0.3,0.3-0.3,0.5
				c0,0.2,0.1,0.3,0.1,0.4c0.1,0.1,0.2,0.2,0.3,0.3c0.2,0.1,0.5,0.2,0.9,0.4c0.6,0.2,1,0.4,1.2,0.7S444.5,104,444.5,104.3z"/>
			<path fill="#888B8D" d="M445.7,99.1c0-0.2,0.1-0.3,0.1-0.4c0.1-0.1,0.2-0.1,0.3-0.1c0.1,0,0.2,0.1,0.3,0.1
				c0.1,0.1,0.2,0.2,0.2,0.4s-0.1,0.3-0.2,0.4c-0.1,0.1-0.2,0.1-0.3,0.1c-0.1,0-0.3-0.1-0.3-0.1C445.8,99.4,445.7,99.3,445.7,99.1z
				 M446.6,105.8h-0.8v-5.2h0.8V105.8z"/>
			<path fill="#888B8D" d="M452.8,103.1c0,0.9-0.2,1.5-0.7,2c-0.4,0.5-1,0.7-1.8,0.7c-0.5,0-0.9-0.1-1.2-0.3s-0.7-0.5-0.8-0.9
				c-0.2-0.4-0.3-0.9-0.3-1.5c0-0.9,0.2-1.5,0.7-2s1-0.7,1.8-0.7c0.7,0,1.3,0.2,1.7,0.7C452.6,101.6,452.8,102.3,452.8,103.1z
				 M448.8,103.1c0,0.7,0.1,1.2,0.4,1.5c0.3,0.3,0.7,0.5,1.2,0.5s0.9-0.2,1.2-0.5c0.3-0.3,0.4-0.9,0.4-1.5c0-0.7-0.1-1.2-0.4-1.5
				c-0.3-0.3-0.7-0.5-1.2-0.5s-0.9,0.2-1.2,0.5C448.9,101.9,448.8,102.5,448.8,103.1z"/>
			<path fill="#888B8D" d="M457.8,105.8v-3.4c0-0.4-0.1-0.8-0.3-1c-0.2-0.2-0.5-0.3-0.9-0.3c-0.5,0-0.9,0.2-1.2,0.4
				c-0.3,0.3-0.4,0.8-0.4,1.5v2.8h-0.8v-5.2h0.7l0.1,0.7h0.1c0.2-0.3,0.4-0.4,0.7-0.6c0.3-0.2,0.6-0.2,1-0.2c0.7,0,1.1,0.2,1.4,0.4
				c0.3,0.3,0.5,0.8,0.5,1.5v3.4H457.8z"/>
			<path fill="#888B8D" d="M463.6,104.3c0,0.5-0.2,0.9-0.5,1.1c-0.4,0.3-0.9,0.4-1.5,0.4c-0.7,0-1.2-0.1-1.6-0.3v-0.7
				c0.3,0.1,0.5,0.2,0.8,0.3c0.3,0.1,0.5,0.1,0.8,0.1c0.4,0,0.7-0.1,1-0.2c0.3-0.2,0.3-0.3,0.3-0.6c0-0.2-0.1-0.4-0.3-0.5
				c-0.2-0.2-0.5-0.3-1-0.5c-0.5-0.2-0.8-0.3-1-0.5c-0.2-0.1-0.4-0.3-0.4-0.4c-0.1-0.2-0.2-0.4-0.2-0.6c0-0.4,0.2-0.8,0.5-1
				c0.4-0.3,0.8-0.4,1.4-0.4c0.5,0,1.1,0.1,1.6,0.3l-0.3,0.7c-0.5-0.2-1-0.3-1.4-0.3c-0.4,0-0.7,0.1-0.9,0.2
				c-0.2,0.1-0.3,0.3-0.3,0.5c0,0.2,0.1,0.3,0.1,0.4c0.1,0.1,0.2,0.2,0.3,0.3c0.2,0.1,0.5,0.2,0.9,0.4c0.6,0.2,1,0.4,1.2,0.7
				C463.5,103.8,463.6,104,463.6,104.3z"/>
		</g>
	</g>
	<g>
		<g>
			<path fill="#888B8D" d="M537.5,64.1h2.5c1.2,0,2,0.2,2.6,0.5c0.5,0.4,0.8,0.9,0.8,1.7c0,0.5-0.2,1-0.4,1.3
				c-0.3,0.3-0.7,0.5-1.3,0.7v0.1c1.4,0.2,2,0.9,2,2.1c0,0.8-0.3,1.4-0.8,1.8c-0.5,0.4-1.3,0.7-2.3,0.7h-3.1L537.5,64.1L537.5,64.1z
				 M538.5,67.9h1.7c0.7,0,1.2-0.1,1.6-0.3s0.5-0.6,0.5-1.1c0-0.5-0.2-0.9-0.5-1.1c-0.4-0.2-0.9-0.3-1.7-0.3h-1.5V67.9L538.5,67.9z
				 M538.5,68.7V72h1.8c0.7,0,1.2-0.2,1.6-0.4c0.4-0.3,0.5-0.7,0.5-1.3c0-0.5-0.2-1-0.5-1.2c-0.4-0.3-0.9-0.4-1.7-0.4
				C540.3,68.7,538.5,68.7,538.5,68.7z"/>
			<path fill="#888B8D" d="M548.4,66.2c0.3,0,0.5,0,0.8,0.1l-0.2,0.9c-0.3-0.1-0.5-0.1-0.7-0.1c-0.5,0-1,0.2-1.4,0.7s-0.6,1-0.6,1.6
				v3.6h-1v-6.6h0.8l0.1,1.2h0.1c0.3-0.4,0.5-0.8,0.9-1C547.6,66.3,548,66.2,548.4,66.2z"/>
			<path fill="#888B8D" d="M554.6,73l-0.2-0.9h-0.1c-0.3,0.4-0.7,0.7-1,0.9c-0.3,0.2-0.8,0.2-1.2,0.2c-0.7,0-1.2-0.2-1.6-0.5
				c-0.4-0.3-0.5-0.8-0.5-1.5c0-1.4,1.1-2.1,3.3-2.1l1.1-0.1v-0.4c0-0.5-0.1-0.9-0.3-1.1c-0.2-0.3-0.6-0.4-1.1-0.4
				c-0.5,0-1.2,0.2-1.9,0.5l-0.3-0.8c0.3-0.2,0.7-0.3,1.1-0.4s0.8-0.2,1.2-0.2c0.8,0,1.4,0.2,1.8,0.5c0.4,0.3,0.6,0.9,0.6,1.7V73
				H554.6z M552.3,72.3c0.7,0,1.1-0.2,1.5-0.5c0.4-0.3,0.5-0.8,0.5-1.5v-0.6l-1,0.1c-0.8,0.1-1.4,0.2-1.7,0.4
				c-0.4,0.2-0.5,0.5-0.5,1c0,0.4,0.1,0.7,0.3,0.8C551.5,72.1,551.9,72.3,552.3,72.3z"/>
			<path fill="#888B8D" d="M560.1,73.1c-1,0-1.7-0.3-2.2-0.9s-0.8-1.4-0.8-2.5c0-1.1,0.3-2,0.8-2.6c0.5-0.7,1.3-0.9,2.3-0.9
				c0.3,0,0.7,0.1,1,0.1c0.3,0.1,0.6,0.2,0.8,0.2l-0.3,0.9c-0.2-0.1-0.5-0.2-0.7-0.2c-0.3-0.1-0.5-0.1-0.7-0.1c-1.4,0-2,0.9-2,2.6
				c0,0.8,0.2,1.5,0.5,1.9s0.8,0.7,1.5,0.7c0.5,0,1.1-0.1,1.7-0.4v0.9C561.3,73,560.7,73.1,560.1,73.1z"/>
			<path fill="#888B8D" d="M566.1,73.1c-1,0-1.7-0.3-2.3-0.9c-0.5-0.6-0.9-1.4-0.9-2.5s0.3-2,0.8-2.6c0.5-0.6,1.2-0.9,2.1-0.9
				c0.8,0,1.5,0.3,2,0.8c0.5,0.5,0.7,1.2,0.7,2.2v0.7H564c0,0.8,0.2,1.4,0.6,1.8c0.4,0.4,0.9,0.6,1.6,0.6c0.7,0,1.4-0.2,2.1-0.4v0.9
				c-0.4,0.2-0.7,0.3-1,0.3C567,73,566.6,73.1,566.1,73.1z M565.9,67c-0.5,0-1,0.2-1.3,0.5c-0.3,0.3-0.5,0.8-0.5,1.5h3.5
				c0-0.7-0.2-1.1-0.4-1.5C566.8,67.2,566.4,67,565.9,67z"/>
			<path fill="#888B8D" d="M574.6,71.1c0,0.6-0.2,1.1-0.7,1.4c-0.5,0.3-1.1,0.5-2,0.5s-1.6-0.2-2.1-0.4v-0.9c0.3,0.2,0.7,0.3,1,0.4
				c0.4,0.1,0.7,0.2,1.1,0.2c0.5,0,0.9-0.1,1.2-0.3c0.3-0.2,0.4-0.4,0.4-0.8c0-0.3-0.1-0.5-0.3-0.7c-0.2-0.2-0.7-0.4-1.3-0.7
				c-0.6-0.2-1.1-0.4-1.3-0.6c-0.3-0.2-0.4-0.4-0.6-0.6c-0.1-0.2-0.2-0.5-0.2-0.8c0-0.5,0.2-1,0.7-1.3c0.4-0.3,1-0.5,1.8-0.5
				c0.7,0,1.4,0.2,2.1,0.4l-0.4,0.8c-0.7-0.3-1.3-0.4-1.8-0.4c-0.5,0-0.8,0.1-1.1,0.2c-0.2,0.2-0.4,0.4-0.4,0.6
				c0,0.2,0.1,0.3,0.2,0.4c0.1,0.1,0.2,0.3,0.4,0.4c0.2,0.1,0.6,0.3,1.2,0.5c0.8,0.3,1.3,0.6,1.6,0.9
				C574.5,70.3,574.6,70.7,574.6,71.1z"/>
		</g>
	</g>
	<g>
		<g>
			<path fill="#F15A24" d="M555.7,125.2c-6.1,0-11,4.9-11,11c0,6.1,4.9,11,11,11s11-4.9,11-11C566.7,130.1,561.8,125.2,555.7,125.2z
				"/>
			<path fill="#FFFFFF" d="M560.8,139.2c0.2,0.2,0.2,0.6,0,0.9l-1.1,1.1c-0.2,0.2-0.6,0.2-0.9,0l-3.1-3.1l-3.1,3.1
				c-0.2,0.2-0.6,0.2-0.9,0l-1.1-1.1c-0.2-0.2-0.2-0.6,0-0.9l3.1-3.1l-3.1-3.1c-0.2-0.2-0.2-0.6,0-0.9l1.1-1.1
				c0.2-0.2,0.6-0.2,0.9,0l3.1,3.1l3.1-3.1c0.2-0.2,0.6-0.2,0.9,0l1.1,1.1c0.2,0.2,0.2,0.6,0,0.9l-3.1,3.1L560.8,139.2z"/>
		</g>
		<g>
			<g>
				<path fill="#4DB9E7" d="M277.2,125.2c-6.1,0-11,4.9-11,11c0,6.1,4.9,11,11,11s11-4.9,11-11C288.2,130.1,283.3,125.2,277.2,125.2
					z"/>
			</g>
			<path fill="#FFFFFF" d="M283.8,133l-7.8,7.8c-0.3,0.3-0.7,0.6-0.8,0.6c-0.1,0-0.4-0.3-0.8-0.6l-3.9-3.9c-0.3-0.3-0.3-0.9,0-1.2
				l0.5-0.5c0.3-0.3,0.9-0.3,1.2,0l2.3,2.3c0.3,0.3,0.9,0.3,1.2,0l6.2-6.2c0.3-0.3,0.9-0.3,1.2,0l0.5,0.5
				C284.2,132.1,284.2,132.7,283.8,133z"/>
		</g>
		<g>
			<path fill="#888B8D" d="M392.8,136.1v2.9H392v-7h1.9c0.9,0,1.5,0.2,1.9,0.5c0.4,0.3,0.6,0.8,0.6,1.5c0,0.9-0.5,1.5-1.4,1.8
				l1.9,3.2h-1l-1.7-2.9L392.8,136.1L392.8,136.1z M392.8,135.5h1.1c0.6,0,1-0.1,1.2-0.3c0.3-0.2,0.4-0.5,0.4-1c0-0.4-0.1-0.8-0.4-1
				c-0.3-0.2-0.7-0.3-1.3-0.3h-1L392.8,135.5L392.8,135.5z"/>
			<path fill="#888B8D" d="M400.1,139.2c-0.8,0-1.4-0.2-1.8-0.7c-0.4-0.5-0.7-1.1-0.7-2c0-0.9,0.2-1.5,0.6-2c0.4-0.5,1-0.8,1.7-0.8
				c0.7,0,1.2,0.2,1.6,0.7c0.4,0.4,0.6,1,0.6,1.7v0.5h-3.6c0,0.6,0.2,1.1,0.5,1.4c0.3,0.3,0.7,0.5,1.2,0.5c0.5,0,1.1-0.1,1.7-0.4
				v0.7c-0.3,0.1-0.5,0.2-0.8,0.3C400.8,139.1,400.5,139.2,400.1,139.2z M399.9,134.4c-0.4,0-0.8,0.2-1,0.4
				c-0.3,0.3-0.4,0.7-0.4,1.1h2.7c0-0.5-0.1-0.9-0.3-1.1S400.3,134.4,399.9,134.4z"/>
			<path fill="#888B8D" d="M410.1,139.1v-3.4c0-0.4-0.1-0.7-0.3-0.9c-0.2-0.2-0.4-0.3-0.8-0.3c-0.5,0-0.9,0.2-1.1,0.4
				s-0.4,0.7-0.4,1.3v2.9h-0.8v-3.4c0-0.4-0.1-0.7-0.3-0.9c-0.2-0.2-0.4-0.3-0.8-0.3c-0.5,0-0.9,0.2-1.1,0.4s-0.3,0.8-0.3,1.5v2.8
				h-0.8v-5.2h0.7l0.1,0.7h0.1c0.2-0.3,0.4-0.4,0.7-0.6c0.3-0.2,0.6-0.2,0.9-0.2c0.8,0,1.4,0.3,1.6,0.9h0.1c0.2-0.3,0.4-0.5,0.7-0.7
				c0.3-0.2,0.7-0.2,1-0.2c0.6,0,1,0.2,1.3,0.4c0.3,0.3,0.4,0.8,0.4,1.5v3.4L410.1,139.1L410.1,139.1z"/>
			<path fill="#888B8D" d="M417,136.5c0,0.9-0.2,1.5-0.7,2c-0.4,0.5-1,0.7-1.8,0.7c-0.5,0-0.9-0.1-1.2-0.3s-0.7-0.5-0.8-0.9
				c-0.2-0.4-0.3-0.9-0.3-1.5c0-0.9,0.2-1.5,0.7-2c0.4-0.5,1-0.7,1.8-0.7c0.7,0,1.3,0.2,1.7,0.7C416.8,134.9,417,135.6,417,136.5z
				 M413,136.5c0,0.7,0.1,1.2,0.4,1.5c0.3,0.3,0.7,0.5,1.2,0.5s0.9-0.2,1.2-0.5c0.3-0.3,0.4-0.9,0.4-1.5c0-0.7-0.1-1.2-0.4-1.5
				c-0.3-0.3-0.7-0.5-1.2-0.5s-0.9,0.2-1.2,0.5C413.1,135.2,413,135.7,413,136.5z"/>
			<path fill="#888B8D" d="M419.6,139.1l-2-5.2h0.9l1.1,3.1c0.3,0.7,0.4,1.2,0.4,1.4h0.1c0.1-0.2,0.2-0.5,0.3-1
				c0.2-0.5,0.6-1.7,1.2-3.5h0.9l-2,5.2L419.6,139.1L419.6,139.1z"/>
			<path fill="#888B8D" d="M426.5,139.1l-0.2-0.8h-0.1c-0.3,0.3-0.5,0.5-0.8,0.7c-0.3,0.1-0.6,0.2-1,0.2c-0.5,0-0.9-0.1-1.2-0.4
				c-0.3-0.3-0.4-0.7-0.4-1.1c0-1,0.9-1.6,2.6-1.7l0.9-0.1v-0.3c0-0.4-0.1-0.7-0.3-0.9c-0.2-0.2-0.4-0.3-0.9-0.3s-0.9,0.1-1.5,0.4
				l-0.2-0.6c0.3-0.2,0.5-0.3,0.9-0.3c0.3-0.1,0.6-0.1,0.9-0.1c0.6,0,1.1,0.2,1.4,0.4c0.3,0.3,0.4,0.7,0.4,1.4v3.6L426.5,139.1
				L426.5,139.1z M424.7,138.5c0.5,0,0.9-0.1,1.1-0.4s0.4-0.7,0.4-1.1v-0.5l-0.8,0.1c-0.7,0-1.1,0.1-1.4,0.3
				c-0.3,0.2-0.4,0.4-0.4,0.8c0,0.3,0.1,0.5,0.3,0.7C424.1,138.4,424.4,138.5,424.7,138.5z"/>
			<path fill="#888B8D" d="M431.2,133.7c0.7,0,1.2,0.2,1.6,0.7s0.5,1.1,0.5,2s-0.2,1.5-0.6,2c-0.4,0.5-0.9,0.7-1.6,0.7
				c-0.3,0-0.7-0.1-0.9-0.2c-0.3-0.1-0.5-0.3-0.7-0.6l0,0l-0.2,0.7h-0.5v-7.4h0.8v1.8c0,0.4,0,0.8-0.1,1.1h0.1
				C429.9,134,430.4,133.7,431.2,133.7z M431.1,134.4c-0.5,0-0.9,0.2-1.2,0.5c-0.3,0.3-0.4,0.8-0.4,1.6s0.1,1.2,0.4,1.6
				c0.3,0.3,0.7,0.5,1.2,0.5c0.5,0,0.9-0.2,1.1-0.5c0.2-0.4,0.4-0.9,0.4-1.5c0-0.7-0.1-1.2-0.4-1.5
				C431.9,134.6,431.6,134.4,431.1,134.4z"/>
			<path fill="#888B8D" d="M435.5,139.1h-0.8v-7.4h0.8V139.1z"/>
			<path fill="#888B8D" d="M439.4,139.2c-0.8,0-1.4-0.2-1.8-0.7c-0.4-0.5-0.7-1.1-0.7-2c0-0.9,0.2-1.5,0.6-2c0.4-0.5,1-0.8,1.7-0.8
				c0.7,0,1.2,0.2,1.6,0.7c0.4,0.4,0.6,1,0.6,1.7v0.5h-3.6c0,0.6,0.2,1.1,0.5,1.4c0.3,0.3,0.7,0.5,1.2,0.5s1.1-0.1,1.7-0.4v0.7
				c-0.3,0.1-0.5,0.2-0.8,0.3C440.2,139.1,439.8,139.2,439.4,139.2z M439.2,134.4c-0.4,0-0.8,0.2-1,0.4c-0.3,0.3-0.4,0.7-0.4,1.1
				h2.7c0-0.5-0.1-0.9-0.3-1.1S439.6,134.4,439.2,134.4z"/>
		</g>
	</g>
	<g>
		<g>
			<path fill="#F15A24" d="M555.7,158.4c-6.1,0-11,4.9-11,11c0,6.1,4.9,11,11,11s11-4.9,11-11C566.7,163.4,561.8,158.4,555.7,158.4z
				"/>
			<path fill="#FFFFFF" d="M560.8,172.5c0.2,0.2,0.2,0.6,0,0.9l-1.1,1.1c-0.2,0.2-0.6,0.2-0.9,0l-3.1-3.1l-3.1,3.1
				c-0.2,0.2-0.6,0.2-0.9,0l-1.1-1.1c-0.2-0.2-0.2-0.6,0-0.9l3.1-3.1l-3.1-3.1c-0.2-0.2-0.2-0.6,0-0.9l1.1-1.1
				c0.2-0.2,0.6-0.2,0.9,0l3.1,3.1l3.1-3.1c0.2-0.2,0.6-0.2,0.9,0l1.1,1.1c0.2,0.2,0.2,0.6,0,0.9l-3.1,3.1L560.8,172.5z"/>
		</g>
		<g>
			<g>
				<path fill="#4DB9E7" d="M277.2,158.4c-6.1,0-11,4.9-11,11c0,6.1,4.9,11,11,11s11-4.9,11-11C288.2,163.4,283.3,158.4,277.2,158.4
					z"/>
			</g>
			<path fill="#FFFFFF" d="M283.8,166.3l-7.8,7.8c-0.3,0.3-0.7,0.6-0.8,0.6c-0.1,0-0.4-0.3-0.8-0.6l-3.9-3.9c-0.3-0.3-0.3-0.9,0-1.2
				l0.5-0.5c0.3-0.3,0.9-0.3,1.2,0l2.3,2.3c0.3,0.3,0.9,0.3,1.2,0l6.2-6.2c0.3-0.3,0.9-0.3,1.2,0l0.5,0.5
				C284.2,165.4,284.2,165.9,283.8,166.3z"/>
		</g>
		<g>
			<path fill="#888B8D" d="M369.4,166c-0.8,0-1.4,0.3-1.8,0.8s-0.7,1.2-0.7,2.1c0,0.9,0.2,1.6,0.7,2.1c0.4,0.5,1,0.8,1.8,0.8
				c0.5,0,1-0.1,1.7-0.3v0.7c-0.5,0.2-1.1,0.3-1.8,0.3c-1,0-1.8-0.3-2.4-0.9c-0.5-0.6-0.8-1.5-0.8-2.7c0-0.7,0.1-1.4,0.4-1.9
				c0.3-0.5,0.7-1,1.1-1.2c0.5-0.3,1.1-0.4,1.8-0.4c0.7,0,1.4,0.1,1.9,0.4l-0.3,0.7C370.5,166.1,370,166,369.4,166z"/>
			<path fill="#888B8D" d="M373.3,172.3h-0.8v-7.4h0.8V172.3z"/>
			<path fill="#888B8D" d="M377.2,172.4c-0.8,0-1.4-0.2-1.8-0.7c-0.4-0.5-0.7-1.1-0.7-2c0-0.9,0.2-1.5,0.6-2c0.4-0.5,1-0.8,1.7-0.8
				c0.7,0,1.2,0.2,1.6,0.7s0.6,1,0.6,1.7v0.5h-3.6c0,0.6,0.2,1.1,0.5,1.4c0.3,0.3,0.7,0.5,1.2,0.5s1.1-0.1,1.7-0.4v0.7
				c-0.3,0.1-0.5,0.2-0.8,0.3S377.5,172.4,377.2,172.4z M377,167.7c-0.4,0-0.8,0.2-1,0.4c-0.3,0.3-0.4,0.7-0.4,1.1h2.7
				c0-0.5-0.1-0.9-0.3-1.1S377.3,167.7,377,167.7z"/>
			<path fill="#888B8D" d="M383.6,172.3l-0.2-0.8h-0.1c-0.3,0.3-0.5,0.5-0.8,0.7c-0.3,0.1-0.6,0.2-1,0.2c-0.5,0-0.9-0.1-1.2-0.4
				c-0.3-0.3-0.4-0.7-0.4-1.1c0-1,0.9-1.6,2.6-1.7l0.9-0.1v-0.3c0-0.4-0.1-0.7-0.3-0.9c-0.2-0.2-0.4-0.3-0.9-0.3s-0.9,0.1-1.5,0.4
				l-0.2-0.6c0.3-0.2,0.5-0.3,0.9-0.3c0.3-0.1,0.6-0.1,0.9-0.1c0.6,0,1.1,0.2,1.4,0.4s0.4,0.7,0.4,1.4v3.6L383.6,172.3L383.6,172.3z
				 M381.9,171.8c0.5,0,0.9-0.1,1.1-0.4c0.3-0.3,0.4-0.7,0.4-1.1v-0.5l-0.8,0.1c-0.7,0-1.1,0.1-1.4,0.3c-0.3,0.2-0.4,0.4-0.4,0.8
				c0,0.3,0.1,0.5,0.3,0.7C381.3,171.7,381.5,171.8,381.9,171.8z"/>
			<path fill="#888B8D" d="M388.3,167c0.2,0,0.4,0,0.7,0.1l-0.1,0.8c-0.2-0.1-0.4-0.1-0.6-0.1c-0.4,0-0.8,0.2-1.1,0.5
				c-0.3,0.3-0.4,0.8-0.4,1.3v2.8h-0.8v-5.2h0.7l0.1,1h0.1c0.2-0.3,0.4-0.6,0.7-0.8S387.9,167,388.3,167z"/>
			<path fill="#888B8D" d="M395.7,172.3l-0.2-0.8h-0.1c-0.3,0.3-0.5,0.5-0.8,0.7c-0.3,0.1-0.6,0.2-1,0.2c-0.5,0-0.9-0.1-1.2-0.4
				c-0.3-0.3-0.4-0.7-0.4-1.1c0-1,0.9-1.6,2.6-1.7l0.9-0.1v-0.3c0-0.4-0.1-0.7-0.3-0.9c-0.2-0.2-0.4-0.3-0.9-0.3
				c-0.4,0-0.9,0.1-1.5,0.4l-0.2-0.6c0.3-0.2,0.5-0.3,0.9-0.3c0.3-0.1,0.6-0.1,0.9-0.1c0.6,0,1.1,0.2,1.4,0.4s0.4,0.7,0.4,1.4v3.6
				L395.7,172.3L395.7,172.3z M393.9,171.8c0.5,0,0.9-0.1,1.1-0.4c0.3-0.3,0.4-0.7,0.4-1.1v-0.5l-0.8,0.1c-0.7,0-1.1,0.1-1.4,0.3
				c-0.3,0.2-0.4,0.4-0.4,0.8c0,0.3,0.1,0.5,0.3,0.7C393.3,171.7,393.5,171.8,393.9,171.8z"/>
			<path fill="#888B8D" d="M401.4,172.3V169c0-0.4-0.1-0.8-0.3-1c-0.2-0.2-0.5-0.3-0.9-0.3c-0.5,0-0.9,0.2-1.2,0.4
				c-0.3,0.3-0.4,0.8-0.4,1.5v2.8h-0.8v-5.2h0.7l0.1,0.7h0.1c0.2-0.3,0.4-0.4,0.7-0.6c0.3-0.2,0.6-0.2,1-0.2c0.7,0,1.1,0.2,1.4,0.4
				c0.3,0.3,0.5,0.8,0.5,1.5v3.4L401.4,172.3L401.4,172.3z"/>
			<path fill="#888B8D" d="M407.4,171.6L407.4,171.6c-0.4,0.5-1,0.8-1.7,0.8c-0.7,0-1.2-0.2-1.6-0.7c-0.4-0.5-0.5-1.1-0.5-2
				s0.2-1.5,0.6-2c0.4-0.5,0.9-0.7,1.6-0.7c0.7,0,1.2,0.3,1.6,0.8h0.1l-0.1-0.4V167v-2.1h0.8v7.4h-0.7L407.4,171.6z M405.8,171.8
				c0.5,0,0.9-0.2,1.2-0.4c0.2-0.3,0.4-0.8,0.4-1.4v-0.2c0-0.8-0.1-1.2-0.4-1.6c-0.3-0.3-0.7-0.5-1.2-0.5c-0.5,0-0.8,0.2-1.1,0.5
				c-0.3,0.4-0.4,0.9-0.4,1.5c0,0.7,0.1,1.2,0.4,1.5C405,171.6,405.4,171.8,405.8,171.8z"/>
			<path fill="#888B8D" d="M414.7,172.3h-0.8v-6.2h-2.2v-0.7h5.2v0.7h-2.2L414.7,172.3L414.7,172.3z"/>
			<path fill="#888B8D" d="M420.2,167c0.2,0,0.4,0,0.7,0.1l-0.1,0.8c-0.2-0.1-0.4-0.1-0.6-0.1c-0.4,0-0.8,0.2-1.1,0.5
				c-0.3,0.3-0.4,0.8-0.4,1.3v2.8h-0.8v-5.2h0.7l0.1,1h0.1c0.2-0.3,0.4-0.6,0.7-0.8C419.6,167.1,419.8,167,420.2,167z"/>
			<path fill="#888B8D" d="M425,172.3l-0.2-0.8h-0.1c-0.3,0.3-0.5,0.5-0.8,0.7c-0.3,0.1-0.6,0.2-1,0.2c-0.5,0-0.9-0.1-1.2-0.4
				c-0.3-0.3-0.4-0.7-0.4-1.1c0-1,0.9-1.6,2.6-1.7l0.9-0.1v-0.3c0-0.4-0.1-0.7-0.3-0.9c-0.2-0.2-0.4-0.3-0.9-0.3
				c-0.4,0-0.9,0.1-1.5,0.4l-0.2-0.6c0.3-0.2,0.5-0.3,0.9-0.3s0.6-0.1,0.9-0.1c0.6,0,1.1,0.2,1.4,0.4c0.3,0.3,0.4,0.7,0.4,1.4v3.6
				L425,172.3L425,172.3z M423.2,171.8c0.5,0,0.9-0.1,1.1-0.4c0.3-0.3,0.4-0.7,0.4-1.1v-0.5l-0.8,0.1c-0.7,0-1.1,0.1-1.4,0.3
				c-0.3,0.2-0.4,0.4-0.4,0.8c0,0.3,0.1,0.5,0.3,0.7C422.6,171.7,422.9,171.8,423.2,171.8z"/>
			<path fill="#888B8D" d="M430.8,172.3V169c0-0.4-0.1-0.8-0.3-1s-0.5-0.3-0.9-0.3c-0.5,0-0.9,0.2-1.2,0.4c-0.3,0.3-0.4,0.8-0.4,1.5
				v2.8h-0.8v-5.2h0.7l0.1,0.7h0.1c0.2-0.3,0.4-0.4,0.7-0.6c0.3-0.2,0.6-0.2,1-0.2c0.7,0,1.1,0.2,1.4,0.4c0.3,0.3,0.5,0.8,0.5,1.5
				v3.4L430.8,172.3L430.8,172.3z"/>
			<path fill="#888B8D" d="M436.6,170.9c0,0.5-0.2,0.9-0.5,1.1c-0.4,0.3-0.9,0.4-1.5,0.4c-0.7,0-1.2-0.1-1.6-0.3v-0.8
				c0.3,0.1,0.5,0.2,0.8,0.3c0.3,0.1,0.5,0.1,0.8,0.1c0.4,0,0.7-0.1,1-0.2c0.3-0.2,0.3-0.3,0.3-0.6c0-0.2-0.1-0.4-0.3-0.5
				s-0.5-0.3-1-0.5c-0.5-0.2-0.8-0.3-1-0.5c-0.2-0.1-0.4-0.3-0.4-0.4c-0.1-0.2-0.2-0.4-0.2-0.6c0-0.4,0.2-0.8,0.5-1
				c0.4-0.3,0.8-0.4,1.4-0.4c0.5,0,1.1,0.1,1.6,0.3l-0.3,0.7c-0.5-0.2-1-0.3-1.4-0.3c-0.4,0-0.7,0.1-0.9,0.2
				c-0.2,0.1-0.3,0.3-0.3,0.5c0,0.2,0.1,0.3,0.1,0.4c0.1,0.1,0.2,0.2,0.3,0.3c0.2,0.1,0.5,0.2,0.9,0.4c0.6,0.2,1,0.4,1.2,0.7
				S436.6,170.5,436.6,170.9z"/>
			<path fill="#888B8D" d="M440.3,172.4c-0.3,0-0.7-0.1-0.9-0.2c-0.3-0.1-0.5-0.3-0.7-0.6h-0.1c0.1,0.3,0.1,0.6,0.1,0.9v2.2h-0.8
				v-7.6h0.7l0.1,0.7h0.1c0.2-0.3,0.4-0.5,0.7-0.6c0.3-0.1,0.6-0.2,0.9-0.2c0.7,0,1.2,0.2,1.6,0.7c0.4,0.5,0.5,1.1,0.5,2
				s-0.2,1.5-0.6,2S441,172.4,440.3,172.4z M440.2,167.7c-0.5,0-0.9,0.2-1.1,0.4s-0.4,0.8-0.4,1.4v0.2c0,0.8,0.1,1.2,0.4,1.6
				c0.3,0.3,0.7,0.5,1.2,0.5c0.4,0,0.8-0.2,1.1-0.5c0.3-0.4,0.4-0.9,0.4-1.5s-0.1-1.1-0.4-1.5C441.1,167.8,440.7,167.7,440.2,167.7z
				"/>
			<path fill="#888B8D" d="M447.1,172.3l-0.2-0.8h-0.1c-0.3,0.3-0.5,0.5-0.8,0.7c-0.3,0.1-0.6,0.2-1,0.2c-0.5,0-0.9-0.1-1.2-0.4
				c-0.3-0.3-0.4-0.7-0.4-1.1c0-1,0.9-1.6,2.6-1.7l0.9-0.1v-0.3c0-0.4-0.1-0.7-0.3-0.9c-0.2-0.2-0.4-0.3-0.9-0.3
				c-0.4,0-0.9,0.1-1.5,0.4l-0.2-0.6c0.3-0.2,0.5-0.3,0.9-0.3s0.6-0.1,0.9-0.1c0.6,0,1.1,0.2,1.4,0.4s0.4,0.7,0.4,1.4v3.6
				L447.1,172.3L447.1,172.3z M445.3,171.8c0.5,0,0.9-0.1,1.1-0.4c0.3-0.3,0.4-0.7,0.4-1.1v-0.5l-0.8,0.1c-0.7,0-1.1,0.1-1.4,0.3
				c-0.3,0.2-0.4,0.4-0.4,0.8c0,0.3,0.1,0.5,0.3,0.7C444.7,171.7,445,171.8,445.3,171.8z"/>
			<path fill="#888B8D" d="M451.7,167c0.2,0,0.4,0,0.7,0.1l-0.1,0.8c-0.2-0.1-0.4-0.1-0.6-0.1c-0.4,0-0.8,0.2-1.1,0.5
				c-0.3,0.3-0.4,0.8-0.4,1.3v2.8h-0.8v-5.2h0.7l0.1,1h0.1c0.2-0.3,0.4-0.6,0.7-0.8C451.1,167.1,451.4,167,451.7,167z"/>
			<path fill="#888B8D" d="M455.5,172.4c-0.8,0-1.4-0.2-1.8-0.7c-0.4-0.5-0.7-1.1-0.7-2c0-0.9,0.2-1.5,0.6-2c0.4-0.5,1-0.8,1.7-0.8
				c0.7,0,1.2,0.2,1.6,0.7s0.6,1,0.6,1.7v0.5h-3.6c0,0.6,0.2,1.1,0.5,1.4c0.3,0.3,0.7,0.5,1.2,0.5s1.1-0.1,1.7-0.4v0.7
				c-0.3,0.1-0.5,0.2-0.8,0.3C456.2,172.4,455.9,172.4,455.5,172.4z M455.3,167.7c-0.4,0-0.8,0.2-1,0.4c-0.3,0.3-0.4,0.7-0.4,1.1
				h2.7c0-0.5-0.1-0.9-0.3-1.1C456.1,167.8,455.7,167.7,455.3,167.7z"/>
			<path fill="#888B8D" d="M462.4,172.3V169c0-0.4-0.1-0.8-0.3-1s-0.5-0.3-0.9-0.3c-0.5,0-0.9,0.2-1.2,0.4c-0.3,0.3-0.4,0.8-0.4,1.5
				v2.8h-0.8v-5.2h0.7l0.1,0.7h0.1c0.2-0.3,0.4-0.4,0.7-0.6c0.3-0.2,0.6-0.2,1-0.2c0.7,0,1.1,0.2,1.4,0.4c0.3,0.3,0.5,0.8,0.5,1.5
				v3.4L462.4,172.3L462.4,172.3z"/>
			<path fill="#888B8D" d="M466.5,171.8c0.2,0,0.3,0,0.4-0.1c0.1-0.1,0.2-0.1,0.3-0.1v0.6c-0.1,0.1-0.2,0.1-0.4,0.1
				c-0.2,0-0.3,0.1-0.4,0.1c-1,0-1.5-0.5-1.5-1.6v-3.1h-0.8v-0.4l0.8-0.3l0.3-1.1h0.4v1.2h1.5v0.6h-1.5v3.1c0,0.3,0.1,0.5,0.2,0.7
				C466,171.7,466.2,171.8,466.5,171.8z"/>
		</g>
	</g>
	<g>
		<g>
			<path fill="#F15A24" d="M555.7,191.7c-6.1,0-11,4.9-11,11c0,6.1,4.9,11,11,11s11-4.9,11-11C566.7,196.6,561.8,191.7,555.7,191.7z
				"/>
			<path fill="#FFFFFF" d="M560.8,205.8c0.2,0.2,0.2,0.6,0,0.9l-1.1,1.1c-0.2,0.2-0.6,0.2-0.9,0l-3.1-3.1l-3.1,3.1
				c-0.2,0.2-0.6,0.2-0.9,0l-1.1-1.1c-0.2-0.2-0.2-0.6,0-0.9l3.1-3.1l-3.1-3.1c-0.2-0.2-0.2-0.6,0-0.9l1.1-1.1
				c0.2-0.2,0.6-0.2,0.9,0l3.1,3.1l3.1-3.1c0.2-0.2,0.6-0.2,0.9,0l1.1,1.1c0.2,0.2,0.2,0.6,0,0.9l-3.1,3.1L560.8,205.8z"/>
		</g>
		<g>
			<g>
				<path fill="#4DB9E7" d="M277.2,191.7c-6.1,0-11,4.9-11,11c0,6.1,4.9,11,11,11s11-4.9,11-11C288.2,196.6,283.3,191.7,277.2,191.7
					z"/>
			</g>
			<path fill="#FFFFFF" d="M283.8,199.5l-7.8,7.8c-0.3,0.3-0.7,0.6-0.8,0.6c-0.1,0-0.4-0.3-0.8-0.6l-3.9-3.9c-0.3-0.3-0.3-0.9,0-1.2
				l0.5-0.5c0.3-0.3,0.9-0.3,1.2,0l2.3,2.3c0.3,0.3,0.9,0.3,1.2,0l6.2-6.2c0.3-0.3,0.9-0.3,1.2,0l0.5,0.5
				C284.2,198.6,284.2,199.1,283.8,199.5z"/>
		</g>
		<g>
			<path fill="#888B8D" d="M349.9,201.9h2.4v3.4c-0.4,0.1-0.8,0.2-1.1,0.3c-0.4,0.1-0.8,0.1-1.3,0.1c-1,0-1.9-0.3-2.4-0.9
				c-0.5-0.6-0.9-1.5-0.9-2.7c0-0.7,0.2-1.4,0.4-1.9c0.3-0.5,0.7-1,1.2-1.2c0.5-0.3,1.2-0.4,1.9-0.4c0.8,0,1.4,0.2,2.1,0.4l-0.3,0.7
				c-0.7-0.3-1.2-0.4-1.8-0.4c-0.9,0-1.5,0.3-2,0.8s-0.7,1.2-0.7,2.1c0,0.9,0.2,1.6,0.7,2.1c0.4,0.5,1.1,0.7,2,0.7
				c0.5,0,1-0.1,1.4-0.2v-2.2h-1.6V201.9L349.9,201.9z"/>
			<path fill="#888B8D" d="M356,205.7c-0.8,0-1.4-0.2-1.8-0.7c-0.4-0.5-0.7-1.1-0.7-2c0-0.9,0.2-1.5,0.6-2c0.4-0.5,1-0.8,1.7-0.8
				c0.7,0,1.2,0.2,1.6,0.7c0.4,0.4,0.6,1,0.6,1.7v0.5h-3.6c0,0.6,0.2,1.1,0.5,1.4c0.3,0.3,0.7,0.5,1.2,0.5s1.1-0.1,1.7-0.4v0.7
				c-0.3,0.1-0.5,0.2-0.8,0.3C356.7,205.6,356.3,205.7,356,205.7z M355.8,200.9c-0.4,0-0.8,0.2-1,0.4c-0.3,0.3-0.4,0.7-0.4,1.1h2.7
				c0-0.5-0.1-0.9-0.3-1.1C356.5,201,356.2,200.9,355.8,200.9z"/>
			<path fill="#888B8D" d="M362.8,205.5v-3.4c0-0.4-0.1-0.8-0.3-1c-0.2-0.2-0.5-0.3-0.9-0.3c-0.5,0-0.9,0.2-1.2,0.4
				c-0.3,0.3-0.4,0.8-0.4,1.5v2.8h-0.8v-5.2h0.7l0.1,0.7h0.1c0.2-0.3,0.4-0.4,0.7-0.6c0.3-0.2,0.6-0.2,1-0.2c0.7,0,1.1,0.2,1.4,0.4
				c0.3,0.3,0.5,0.8,0.5,1.5v3.4L362.8,205.5L362.8,205.5z"/>
			<path fill="#888B8D" d="M367,205c0.2,0,0.3,0,0.4-0.1s0.2-0.1,0.3-0.1v0.6c-0.1,0.1-0.2,0.1-0.4,0.1c-0.2,0-0.3,0.1-0.4,0.1
				c-1,0-1.5-0.5-1.5-1.6V201h-0.8v-0.4l0.8-0.3l0.3-1.1h0.4v1.2h1.5v0.6h-1.5v3.1c0,0.3,0.1,0.5,0.2,0.7S366.7,205,367,205z"/>
			<path fill="#888B8D" d="M369.5,205.5h-0.8v-7.4h0.8V205.5z"/>
			<path fill="#888B8D" d="M373.4,205.7c-0.8,0-1.4-0.2-1.8-0.7c-0.4-0.5-0.7-1.1-0.7-2c0-0.9,0.2-1.5,0.6-2c0.4-0.5,1-0.8,1.7-0.8
				c0.7,0,1.2,0.2,1.6,0.7s0.6,1,0.6,1.7v0.5h-3.6c0,0.6,0.2,1.1,0.5,1.4s0.7,0.5,1.2,0.5s1.1-0.1,1.7-0.4v0.7
				c-0.3,0.1-0.5,0.2-0.8,0.3C374.1,205.6,373.8,205.7,373.4,205.7z M373.2,200.9c-0.4,0-0.8,0.2-1,0.4c-0.3,0.3-0.4,0.7-0.4,1.1
				h2.7c0-0.5-0.1-0.9-0.3-1.1S373.6,200.9,373.2,200.9z"/>
			<path fill="#888B8D" d="M383.7,202.9c0,0.9-0.2,1.5-0.7,2c-0.4,0.5-1,0.7-1.8,0.7c-0.5,0-0.9-0.1-1.2-0.3s-0.7-0.5-0.8-0.9
				c-0.2-0.4-0.3-0.9-0.3-1.5c0-0.9,0.2-1.5,0.7-2s1-0.7,1.8-0.7c0.7,0,1.3,0.2,1.7,0.7C383.5,201.4,383.7,202.1,383.7,202.9z
				 M379.7,202.9c0,0.7,0.1,1.2,0.4,1.5c0.3,0.3,0.7,0.5,1.2,0.5s0.9-0.2,1.2-0.5c0.3-0.3,0.4-0.9,0.4-1.5s-0.1-1.2-0.4-1.5
				c-0.3-0.3-0.7-0.5-1.2-0.5s-0.9,0.2-1.2,0.5C379.8,201.7,379.7,202.3,379.7,202.9z"/>
			<path fill="#888B8D" d="M388.7,205.5v-3.4c0-0.4-0.1-0.8-0.3-1c-0.2-0.2-0.5-0.3-0.9-0.3c-0.5,0-0.9,0.2-1.2,0.4
				c-0.3,0.3-0.4,0.8-0.4,1.5v2.8h-0.8v-5.2h0.7l0.1,0.7h0.1c0.2-0.3,0.4-0.4,0.7-0.6c0.3-0.2,0.6-0.2,1-0.2c0.7,0,1.1,0.2,1.4,0.4
				c0.3,0.3,0.5,0.8,0.5,1.5v3.4L388.7,205.5L388.7,205.5z"/>
			<path fill="#888B8D" d="M397.9,200.3v0.5l-1,0.1c0.1,0.1,0.2,0.3,0.2,0.4c0.1,0.2,0.1,0.4,0.1,0.6c0,0.5-0.2,0.9-0.5,1.2
				c-0.4,0.3-0.8,0.4-1.5,0.4c-0.2,0-0.3,0-0.4-0.1c-0.3,0.2-0.5,0.4-0.5,0.7c0,0.2,0.1,0.3,0.2,0.3c0.1,0.1,0.3,0.1,0.6,0.1h0.9
				c0.5,0,1,0.1,1.3,0.4c0.3,0.2,0.4,0.6,0.4,1c0,0.6-0.2,1-0.7,1.3c-0.5,0.3-1.1,0.4-2,0.4c-0.7,0-1.2-0.1-1.6-0.4
				c-0.4-0.3-0.5-0.6-0.5-1.1c0-0.3,0.1-0.6,0.3-0.8s0.5-0.4,0.9-0.5c-0.1-0.1-0.3-0.2-0.3-0.3c-0.1-0.1-0.1-0.3-0.1-0.4
				c0-0.2,0.1-0.4,0.2-0.5c0.1-0.1,0.3-0.3,0.5-0.4c-0.3-0.1-0.5-0.3-0.7-0.5s-0.3-0.6-0.3-0.9c0-0.6,0.2-1,0.5-1.3s0.8-0.5,1.5-0.5
				c0.3,0,0.5,0.1,0.8,0.1L397.9,200.3L397.9,200.3z M393.8,206.4c0,0.3,0.1,0.5,0.4,0.7c0.3,0.2,0.6,0.2,1,0.2
				c0.7,0,1.1-0.1,1.5-0.3c0.3-0.2,0.5-0.5,0.5-0.8c0-0.3-0.1-0.5-0.3-0.6c-0.2-0.1-0.5-0.2-1-0.2h-0.9c-0.4,0-0.7,0.1-0.8,0.3
				C394,205.9,393.8,206.1,393.8,206.4z M394.2,202c0,0.4,0.1,0.7,0.3,0.8s0.5,0.3,0.9,0.3c0.8,0,1.1-0.4,1.1-1.1
				c0-0.8-0.4-1.2-1.2-1.2c-0.4,0-0.7,0.1-0.9,0.3S394.2,201.6,394.2,202z"/>
			<path fill="#888B8D" d="M399.8,200.3v3.4c0,0.4,0.1,0.8,0.3,1c0.2,0.2,0.5,0.3,0.9,0.3c0.5,0,0.9-0.2,1.2-0.4
				c0.3-0.3,0.4-0.8,0.4-1.5v-2.8h0.8v5.2h-0.7l-0.1-0.7h-0.1c-0.2,0.3-0.4,0.4-0.7,0.6c-0.3,0.2-0.6,0.2-1,0.2
				c-0.7,0-1.1-0.2-1.4-0.4c-0.3-0.3-0.5-0.8-0.5-1.5v-3.4L399.8,200.3L399.8,200.3z"/>
			<path fill="#888B8D" d="M411.7,205.5v-3.4c0-0.4-0.1-0.7-0.3-0.9s-0.4-0.3-0.8-0.3c-0.5,0-0.9,0.2-1.1,0.4s-0.4,0.7-0.4,1.3v2.9
				h-0.8v-3.4c0-0.4-0.1-0.7-0.3-0.9c-0.2-0.2-0.4-0.3-0.8-0.3c-0.5,0-0.9,0.2-1.1,0.4s-0.3,0.8-0.3,1.5v2.8H405v-5.2h0.7l0.1,0.7
				h0.1c0.2-0.3,0.4-0.4,0.7-0.6c0.3-0.2,0.6-0.2,0.9-0.2c0.8,0,1.4,0.3,1.6,0.9h0.1c0.2-0.3,0.4-0.5,0.7-0.7c0.3-0.2,0.7-0.2,1-0.2
				c0.6,0,1,0.2,1.3,0.4c0.3,0.3,0.4,0.8,0.4,1.5v3.4L411.7,205.5L411.7,205.5z"/>
			<path fill="#888B8D" d="M417.5,204.1c0,0.5-0.2,0.9-0.5,1.1c-0.4,0.3-0.9,0.4-1.5,0.4c-0.7,0-1.2-0.1-1.6-0.3v-0.8
				c0.3,0.1,0.5,0.2,0.8,0.3c0.3,0.1,0.5,0.1,0.8,0.1c0.4,0,0.7-0.1,1-0.2c0.3-0.2,0.3-0.3,0.3-0.6c0-0.2-0.1-0.4-0.3-0.5
				c-0.2-0.2-0.5-0.3-1-0.5c-0.5-0.2-0.8-0.3-1-0.5c-0.2-0.1-0.4-0.3-0.4-0.4c-0.1-0.2-0.2-0.4-0.2-0.6c0-0.4,0.2-0.8,0.5-1
				c0.4-0.3,0.8-0.4,1.4-0.4c0.5,0,1.1,0.1,1.6,0.3l-0.3,0.7c-0.5-0.2-1-0.3-1.4-0.3c-0.4,0-0.7,0.1-0.9,0.2
				c-0.2,0.1-0.3,0.3-0.3,0.5c0,0.2,0.1,0.3,0.1,0.4c0.1,0.1,0.2,0.2,0.3,0.3c0.2,0.1,0.5,0.2,0.9,0.4c0.6,0.2,1,0.4,1.2,0.7
				S417.5,203.8,417.5,204.1z"/>
			<path fill="#888B8D" d="M424.6,205.5l-0.2-0.8h-0.1c-0.3,0.3-0.5,0.5-0.8,0.7c-0.3,0.1-0.6,0.2-1,0.2c-0.5,0-0.9-0.1-1.2-0.4
				c-0.3-0.3-0.4-0.7-0.4-1.1c0-1,0.9-1.6,2.6-1.7l0.9-0.1v-0.2c0-0.4-0.1-0.7-0.3-0.9c-0.2-0.2-0.4-0.3-0.9-0.3
				c-0.4,0-0.9,0.1-1.5,0.4l-0.2-0.6c0.3-0.2,0.5-0.3,0.9-0.3s0.6-0.1,0.9-0.1c0.6,0,1.1,0.2,1.4,0.4s0.4,0.7,0.4,1.4v3.6h-0.7
				V205.5z M422.8,205c0.5,0,0.9-0.1,1.1-0.4c0.3-0.3,0.4-0.7,0.4-1.1V203l-0.8,0.1c-0.7,0-1.1,0.1-1.4,0.3
				c-0.3,0.2-0.4,0.4-0.4,0.8c0,0.3,0.1,0.5,0.3,0.7C422.2,204.9,422.4,205,422.8,205z"/>
			<path fill="#888B8D" d="M430.3,205.5v-3.4c0-0.4-0.1-0.8-0.3-1c-0.2-0.2-0.5-0.3-0.9-0.3c-0.5,0-0.9,0.2-1.2,0.4
				s-0.4,0.8-0.4,1.5v2.8h-0.8v-5.2h0.7l0.1,0.7h0.1c0.2-0.3,0.4-0.4,0.7-0.6c0.3-0.2,0.6-0.2,1-0.2c0.7,0,1.1,0.2,1.4,0.4
				s0.5,0.8,0.5,1.5v3.4L430.3,205.5L430.3,205.5z"/>
			<path fill="#888B8D" d="M436.3,204.8L436.3,204.8c-0.4,0.5-1,0.8-1.7,0.8s-1.2-0.2-1.6-0.7c-0.4-0.5-0.5-1.1-0.5-2
				c0-0.9,0.2-1.5,0.6-2s0.9-0.7,1.6-0.7c0.7,0,1.2,0.3,1.6,0.8h0.1l-0.1-0.4v-0.4v-2.1h0.8v7.4h-0.7L436.3,204.8z M434.7,205
				c0.5,0,0.9-0.2,1.2-0.4c0.2-0.3,0.4-0.8,0.4-1.4V203c0-0.8-0.1-1.2-0.4-1.6c-0.3-0.3-0.7-0.5-1.2-0.5c-0.5,0-0.8,0.2-1.1,0.5
				c-0.3,0.4-0.4,0.9-0.4,1.5c0,0.7,0.1,1.2,0.4,1.5C433.9,204.8,434.3,205,434.7,205z"/>
			<path fill="#888B8D" d="M444.7,204.1c0,0.5-0.2,0.9-0.5,1.1c-0.4,0.3-0.9,0.4-1.5,0.4c-0.7,0-1.2-0.1-1.6-0.3v-0.8
				c0.3,0.1,0.5,0.2,0.8,0.3c0.3,0.1,0.5,0.1,0.8,0.1c0.4,0,0.7-0.1,1-0.2c0.3-0.2,0.3-0.3,0.3-0.6c0-0.2-0.1-0.4-0.3-0.5
				c-0.2-0.2-0.5-0.3-1-0.5c-0.5-0.2-0.8-0.3-1-0.5c-0.2-0.1-0.4-0.3-0.4-0.4c-0.1-0.2-0.2-0.4-0.2-0.6c0-0.4,0.2-0.8,0.5-1
				c0.4-0.3,0.8-0.4,1.4-0.4c0.5,0,1.1,0.1,1.6,0.3l-0.3,0.7c-0.5-0.2-1-0.3-1.4-0.3c-0.4,0-0.7,0.1-0.9,0.2
				c-0.2,0.1-0.3,0.3-0.3,0.5c0,0.2,0.1,0.3,0.1,0.4c0.1,0.1,0.2,0.2,0.3,0.3s0.5,0.2,0.9,0.4c0.6,0.2,1,0.4,1.2,0.7
				S444.7,203.8,444.7,204.1z"/>
			<path fill="#888B8D" d="M450.5,202.9c0,0.9-0.2,1.5-0.7,2c-0.4,0.5-1,0.7-1.8,0.7c-0.5,0-0.9-0.1-1.2-0.3s-0.7-0.5-0.8-0.9
				c-0.2-0.4-0.3-0.9-0.3-1.5c0-0.9,0.2-1.5,0.7-2c0.4-0.5,1-0.7,1.8-0.7c0.7,0,1.3,0.2,1.7,0.7
				C450.3,201.4,450.5,202.1,450.5,202.9z M446.5,202.9c0,0.7,0.1,1.2,0.4,1.5c0.3,0.3,0.7,0.5,1.2,0.5c0.5,0,0.9-0.2,1.2-0.5
				c0.3-0.3,0.4-0.9,0.4-1.5s-0.1-1.2-0.4-1.5c-0.3-0.3-0.7-0.5-1.2-0.5c-0.5,0-0.9,0.2-1.2,0.5
				C446.6,201.7,446.5,202.3,446.5,202.9z"/>
			<path fill="#888B8D" d="M454.2,200.9h-1.4v4.6H452v-4.6h-0.9v-0.4l0.9-0.3V200c0-1.3,0.5-2,1.7-2c0.3,0,0.6,0.1,1,0.2l-0.2,0.7
				c-0.3-0.1-0.5-0.2-0.8-0.2c-0.3,0-0.5,0.1-0.7,0.3s-0.2,0.5-0.2,1v0.3h1.4L454.2,200.9L454.2,200.9z"/>
			<path fill="#888B8D" d="M456.9,205c0.2,0,0.3,0,0.4-0.1c0.1-0.1,0.2-0.1,0.3-0.1v0.6c-0.1,0.1-0.2,0.1-0.4,0.1
				c-0.2,0-0.3,0.1-0.4,0.1c-1,0-1.5-0.5-1.5-1.6V201h-0.8v-0.4l0.8-0.3l0.3-1.1h0.4v1.2h1.5v0.6H456v3.1c0,0.3,0.1,0.5,0.2,0.7
				C456.4,204.9,456.6,205,456.9,205z"/>
			<path fill="#888B8D" d="M462.9,205c0.2,0,0.3,0,0.4-0.1s0.2-0.1,0.3-0.1v0.6c-0.1,0.1-0.2,0.1-0.4,0.1c-0.2,0-0.3,0.1-0.4,0.1
				c-1,0-1.5-0.5-1.5-1.6V201h-0.8v-0.4l0.8-0.3l0.3-1.1h0.4v1.2h1.5v0.6H462v3.1c0,0.3,0.1,0.5,0.2,0.7S462.6,205,462.9,205z"/>
			<path fill="#888B8D" d="M464.5,198.9c0-0.2,0.1-0.3,0.1-0.4s0.2-0.1,0.3-0.1c0.1,0,0.2,0.1,0.3,0.1c0.1,0.1,0.2,0.2,0.2,0.4
				c0,0.2-0.1,0.3-0.2,0.4c-0.1,0.1-0.2,0.1-0.3,0.1c-0.1,0-0.3-0.1-0.3-0.1S464.5,199.1,464.5,198.9z M465.4,205.5h-0.8v-5.2h0.8
				V205.5z"/>
			<path fill="#888B8D" d="M470.5,204.1c0,0.5-0.2,0.9-0.5,1.1c-0.4,0.3-0.9,0.4-1.5,0.4c-0.7,0-1.2-0.1-1.6-0.3v-0.8
				c0.3,0.1,0.5,0.2,0.8,0.3c0.3,0.1,0.5,0.1,0.8,0.1c0.4,0,0.7-0.1,1-0.2c0.3-0.2,0.3-0.3,0.3-0.6c0-0.2-0.1-0.4-0.3-0.5
				c-0.2-0.2-0.5-0.3-1-0.5c-0.5-0.2-0.8-0.3-1-0.5c-0.2-0.1-0.4-0.3-0.4-0.4c-0.1-0.2-0.2-0.4-0.2-0.6c0-0.4,0.2-0.8,0.5-1
				c0.4-0.3,0.8-0.4,1.4-0.4c0.5,0,1.1,0.1,1.6,0.3l-0.3,0.7c-0.5-0.2-1-0.3-1.4-0.3c-0.4,0-0.7,0.1-0.9,0.2
				c-0.2,0.1-0.3,0.3-0.3,0.5c0,0.2,0.1,0.3,0.1,0.4s0.2,0.2,0.3,0.3c0.2,0.1,0.5,0.2,0.9,0.4c0.6,0.2,1,0.4,1.2,0.7
				C470.4,203.5,470.5,203.8,470.5,204.1z"/>
			<path fill="#888B8D" d="M475.1,204.1c0,0.5-0.2,0.9-0.5,1.1c-0.4,0.3-0.9,0.4-1.5,0.4c-0.7,0-1.2-0.1-1.6-0.3v-0.8
				c0.3,0.1,0.5,0.2,0.8,0.3c0.3,0.1,0.5,0.1,0.8,0.1c0.4,0,0.7-0.1,1-0.2c0.3-0.2,0.3-0.3,0.3-0.6c0-0.2-0.1-0.4-0.3-0.5
				c-0.2-0.2-0.5-0.3-1-0.5c-0.5-0.2-0.8-0.3-1-0.5c-0.2-0.1-0.4-0.3-0.4-0.4c-0.1-0.2-0.2-0.4-0.2-0.6c0-0.4,0.2-0.8,0.5-1
				c0.4-0.3,0.8-0.4,1.4-0.4c0.5,0,1.1,0.1,1.6,0.3l-0.3,0.7c-0.5-0.2-1-0.3-1.4-0.3c-0.4,0-0.7,0.1-0.9,0.2
				c-0.2,0.1-0.3,0.3-0.3,0.5c0,0.2,0.1,0.3,0.1,0.4c0.1,0.1,0.2,0.2,0.3,0.3c0.2,0.1,0.5,0.2,0.9,0.4c0.6,0.2,1,0.4,1.2,0.7
				C475,203.5,475.1,203.8,475.1,204.1z"/>
			<path fill="#888B8D" d="M477.1,200.3v3.4c0,0.4,0.1,0.8,0.3,1c0.2,0.2,0.5,0.3,0.9,0.3c0.5,0,0.9-0.2,1.2-0.4
				c0.3-0.3,0.4-0.8,0.4-1.5v-2.8h0.8v5.2h-0.7l-0.1-0.7h-0.1c-0.2,0.3-0.4,0.4-0.7,0.6c-0.3,0.2-0.6,0.2-1,0.2
				c-0.7,0-1.1-0.2-1.4-0.4c-0.3-0.3-0.5-0.8-0.5-1.5v-3.4L477.1,200.3L477.1,200.3z"/>
			<path fill="#888B8D" d="M484.6,205.7c-0.8,0-1.4-0.2-1.8-0.7c-0.4-0.5-0.7-1.1-0.7-2c0-0.9,0.2-1.5,0.6-2c0.4-0.5,1-0.8,1.7-0.8
				c0.7,0,1.2,0.2,1.6,0.7c0.4,0.4,0.6,1,0.6,1.7v0.5H483c0,0.6,0.2,1.1,0.5,1.4s0.7,0.5,1.2,0.5s1.1-0.1,1.7-0.4v0.7
				c-0.3,0.1-0.5,0.2-0.8,0.3C485.4,205.6,485,205.7,484.6,205.7z M484.4,200.9c-0.4,0-0.8,0.2-1,0.4c-0.3,0.3-0.4,0.7-0.4,1.1h2.7
				c0-0.5-0.1-0.9-0.3-1.1C485.2,201,484.9,200.9,484.4,200.9z"/>
		</g>
	</g>
	<line fill="none" stroke="#E6E6E6" stroke-width="1.0756" stroke-miterlimit="10" x1="206.3" y1="119.5" x2="635.6" y2="119.5"/>
	<line fill="none" stroke="#E6E6E6" stroke-width="1.0756" stroke-miterlimit="10" x1="206.3" y1="152.8" x2="635.6" y2="152.8"/>
	<line fill="none" stroke="#E6E6E6" stroke-width="1.0756" stroke-miterlimit="10" x1="206.3" y1="186.1" x2="635.6" y2="186.1"/>
</g>
</svg>
