<svg xmlns="http://www.w3.org/2000/svg" xmlns:xlink="http://www.w3.org/1999/xlink" width="43.392" height="43.392" viewBox="0 0 43.392 43.392"><defs><style>.a{fill:#0b7a75;}.b{clip-path:url(#a);}</style><clipPath id="a"><rect class="a" width="43.392" height="43.392" transform="translate(0 0)"/></clipPath></defs><g class="b" transform="translate(0 0)"><path class="a" d="M20.914,0A20.914,20.914,0,1,0,41.827,20.914,20.937,20.937,0,0,0,20.914,0M32.858,14.919,17.789,29.988a1.742,1.742,0,0,1-2.464,0l-8.1-8.1a.871.871,0,0,1,0-1.232l1.232-1.232a.871.871,0,0,1,1.232,0l6.866,6.866L30.393,12.455a.872.872,0,0,1,1.232,0l1.232,1.232a.871.871,0,0,1,0,1.232" transform="translate(0.43 1.495)"/></g></svg>