<svg xmlns="http://www.w3.org/2000/svg" xmlns:xlink="http://www.w3.org/1999/xlink" width="43.392" height="43.392" viewBox="0 0 43.392 43.392"><defs><style>.a{fill:#7b2d26;}.b{clip-path:url(#a);}</style><clipPath id="a"><rect class="a" width="43.392" height="43.392"/></clipPath></defs><g class="b" transform="translate(0 0)"><path class="a" d="M21.219,0A21.219,21.219,0,1,0,42.439,21.219,21.244,21.244,0,0,0,21.219,0M29.8,27.3a.884.884,0,0,1,0,1.25l-1.25,1.25a.884.884,0,0,1-1.25,0L21.219,23.72,15.137,29.8a.884.884,0,0,1-1.25,0l-1.25-1.25a.884.884,0,0,1,0-1.25l6.082-6.082-6.082-6.082a.884.884,0,0,1,0-1.25l1.25-1.25a.884.884,0,0,1,1.25,0l6.082,6.082L27.3,12.637a.884.884,0,0,1,1.25,0l1.25,1.25a.884.884,0,0,1,0,1.25L23.72,21.219Z" transform="translate(0.808 0.277)"/></g></svg>