<svg xmlns="http://www.w3.org/2000/svg" width="104.12" height="55.47" viewBox="0 0 104.12 55.47"><defs><style>.a{fill:#878a8c;}.b{fill:#00c6b0;}</style></defs><g transform="translate(0 0)"><g transform="translate(72.526)"><path class="a" d="M516.569,426.177v-15.8a15.8,15.8,0,0,0-31.594,0v15.8h4.739v-15.8a11.058,11.058,0,0,1,22.115,0v15.8Z" transform="translate(-484.975 -394.583)"/></g><g transform="translate(36.333)"><path class="b" d="M443.2,408.915a11.056,11.056,0,0,1,21.917,0h4.768a15.794,15.794,0,0,0-31.453,0Z" transform="translate(-438.43 -394.583)"/><path class="b" d="M465.115,416.782a11.056,11.056,0,0,1-21.917,0H438.43a15.794,15.794,0,0,0,31.453,0Z" transform="translate(-438.43 -399.52)"/></g><path class="a" d="M423.228,411.845c.044-.482.07-.97.07-1.465a15.787,15.787,0,1,0-1.266,6.2h-5.377a11.057,11.057,0,0,1-20.112-4.739h26.685ZM407.5,399.322a11.062,11.062,0,0,1,10.564,7.783H396.936A11.062,11.062,0,0,1,407.5,399.322Z" transform="translate(-391.704 -394.583)"/></g><g transform="translate(4.826 38.087)"><path class="b" d="M404.328,457.843l-.281-1.324h-.068a3.918,3.918,0,0,1-1.388,1.184,4.224,4.224,0,0,1-1.727.309,3.108,3.108,0,0,1-2.169-.712,2.6,2.6,0,0,1-.785-2.029q0-2.818,4.508-2.954l1.578-.051v-.578a2.359,2.359,0,0,0-.471-1.617,1.939,1.939,0,0,0-1.506-.522,6.131,6.131,0,0,0-2.631.713l-.433-1.078a6.629,6.629,0,0,1,1.507-.586,6.52,6.52,0,0,1,1.642-.212,3.545,3.545,0,0,1,2.466.739,3.084,3.084,0,0,1,.8,2.368v6.349Zm-3.183-.993a2.858,2.858,0,0,0,2.067-.722,2.668,2.668,0,0,0,.751-2.02v-.84l-1.409.059a5.13,5.13,0,0,0-2.423.522,1.575,1.575,0,0,0-.743,1.439,1.451,1.451,0,0,0,.463,1.162A1.918,1.918,0,0,0,401.145,456.85Z" transform="translate(-397.911 -444.637)"/><path class="b" d="M422.06,456.77h-1.409V443.564h1.409Z" transform="translate(-402.969 -443.564)"/><path class="b" d="M435.563,445.076a.936.936,0,0,1,.238-.709.879.879,0,0,1,1.18,0,.918.918,0,0,1,.247.7.932.932,0,0,1-.247.708.86.86,0,0,1-1.18,0A.951.951,0,0,1,435.563,445.076Zm1.528,11.823h-1.409v-9.3h1.409Z" transform="translate(-406.285 -443.693)"/><path class="b" d="M458.063,448.536v.891l-1.723.2a3.025,3.025,0,0,1,.611,1.858,2.75,2.75,0,0,1-.934,2.182,3.767,3.767,0,0,1-2.563.814,4.21,4.21,0,0,1-.781-.068,1.387,1.387,0,0,0-.9,1.2.606.606,0,0,0,.314.565,2.286,2.286,0,0,0,1.078.183h1.646a3.692,3.692,0,0,1,2.322.636,2.212,2.212,0,0,1,.81,1.851A2.642,2.642,0,0,1,456.7,461.2a6.634,6.634,0,0,1-3.616.811,4.942,4.942,0,0,1-2.814-.68,2.192,2.192,0,0,1-.989-1.918,2.154,2.154,0,0,1,.544-1.468,2.773,2.773,0,0,1,1.528-.841,1.469,1.469,0,0,1-.6-.5,1.326,1.326,0,0,1-.242-.789,1.5,1.5,0,0,1,.271-.891,2.871,2.871,0,0,1,.858-.739,2.506,2.506,0,0,1-1.176-1.009,2.972,2.972,0,0,1-.454-1.63,3.009,3.009,0,0,1,.917-2.355,3.741,3.741,0,0,1,2.6-.828,4.708,4.708,0,0,1,1.316.17ZM450.644,459.4a1.262,1.262,0,0,0,.637,1.145,3.509,3.509,0,0,0,1.824.39,5.094,5.094,0,0,0,2.627-.53,1.624,1.624,0,0,0,.853-1.439,1.137,1.137,0,0,0-.467-1.048,3.623,3.623,0,0,0-1.757-.293h-1.689a2.223,2.223,0,0,0-1.494.459A1.636,1.636,0,0,0,450.644,459.4Zm.764-7.885a1.893,1.893,0,0,0,.552,1.477,2.2,2.2,0,0,0,1.536.5,1.8,1.8,0,0,0,2.062-2,1.849,1.849,0,0,0-2.088-2.1,2.064,2.064,0,0,0-1.528.535A2.151,2.151,0,0,0,451.408,451.515Z" transform="translate(-409.338 -444.632)"/><path class="b" d="M478.806,457.838v-6.018a2.427,2.427,0,0,0-.518-1.7,2.11,2.11,0,0,0-1.621-.56,2.672,2.672,0,0,0-2.138.789,3.981,3.981,0,0,0-.68,2.606v4.88H472.44v-9.3h1.146l.229,1.273h.068a2.877,2.877,0,0,1,1.214-1.065,3.951,3.951,0,0,1,1.74-.378,3.531,3.531,0,0,1,2.529.811,3.449,3.449,0,0,1,.849,2.593v6.068Z" transform="translate(-414.487 -444.632)"/><path class="b" d="M499.354,458.008a4.275,4.275,0,0,1-3.255-1.256,4.864,4.864,0,0,1-1.192-3.488,5.393,5.393,0,0,1,1.107-3.574,3.68,3.68,0,0,1,2.975-1.324,3.508,3.508,0,0,1,2.767,1.151,4.4,4.4,0,0,1,1.019,3.034v.891h-6.408a3.686,3.686,0,0,0,.827,2.487,2.862,2.862,0,0,0,2.211.849,7.485,7.485,0,0,0,2.97-.628v1.257a7.469,7.469,0,0,1-1.413.462A7.947,7.947,0,0,1,499.354,458.008Zm-.382-8.462a2.3,2.3,0,0,0-1.786.729,3.363,3.363,0,0,0-.785,2.02h4.863a3.1,3.1,0,0,0-.594-2.041A2.092,2.092,0,0,0,498.972,449.546Z" transform="translate(-419.484 -444.632)"/><path class="b" d="M521.77,448.366a5.48,5.48,0,0,1,1.112.1l-.2,1.306a4.8,4.8,0,0,0-1.018-.127,2.481,2.481,0,0,0-1.932.917,3.343,3.343,0,0,0-.8,2.283v4.991h-1.409v-9.3h1.162l.162,1.723h.068a4.086,4.086,0,0,1,1.248-1.4A2.807,2.807,0,0,1,521.77,448.366Z" transform="translate(-424.515 -444.632)"/></g></svg>